<?xml version="1.0" encoding="utf-8" standalone="no"?>
<!DOCTYPE svg PUBLIC "-//W3C//DTD SVG 1.1//EN"
  "http://www.w3.org/Graphics/SVG/1.1/DTD/svg11.dtd">
<svg height="576pt" version="1.1" viewBox="0 0 1296 576" width="1296pt" xmlns="http://www.w3.org/2000/svg" xmlns:xlink="http://www.w3.org/1999/xlink">
 <metadata>
  <rdf:RDF xmlns:cc="http://creativecommons.org/ns#" xmlns:dc="http://purl.org/dc/elements/1.1/" xmlns:rdf="http://www.w3.org/1999/02/22-rdf-syntax-ns#">
   <cc:Work>
    <dc:type rdf:resource="http://purl.org/dc/dcmitype/StillImage"/>
    <dc:date>2021-10-15T03:24:02.172096</dc:date>
    <dc:format>image/svg+xml</dc:format>
    <dc:creator>
     <cc:Agent>
      <dc:title>Matplotlib v3.4.3, https://matplotlib.org/</dc:title>
     </cc:Agent>
    </dc:creator>
   </cc:Work>
  </rdf:RDF>
 </metadata>
 <defs>
  <style type="text/css">*{stroke-linecap:butt;stroke-linejoin:round;}</style>
 </defs>
 <g id="figure_1">
  <g id="patch_1">
   <path d="M 0 576 
L 1296 576 
L 1296 0 
L 0 0 
z
" style="fill:#ffffff;"/>
  </g>
  <g id="axes_1">
   <g id="patch_2">
    <path d="M 162 512.64 
L 1166.4 512.64 
L 1166.4 69.12 
L 162 69.12 
z
" style="fill:#ffffff;"/>
   </g>
   <g id="patch_3">
    <path clip-path="url(#pf5decd67ce)" d="M 224.775 5046.4 
L 245.7 5046.4 
L 245.7 132.243156 
L 224.775 132.243156 
z
" style="fill:#00004c;"/>
   </g>
   <g id="patch_4">
    <path clip-path="url(#pf5decd67ce)" d="M 475.875 5046.4 
L 496.8 5046.4 
L 496.8 158.477863 
L 475.875 158.477863 
z
" style="fill:#00004c;"/>
   </g>
   <g id="patch_5">
    <path clip-path="url(#pf5decd67ce)" d="M 726.975 5046.4 
L 747.9 5046.4 
L 747.9 144.3409 
L 726.975 144.3409 
z
" style="fill:#00004c;"/>
   </g>
   <g id="patch_6">
    <path clip-path="url(#pf5decd67ce)" d="M 978.075 5046.4 
L 999 5046.4 
L 999 133.31015 
L 978.075 133.31015 
z
" style="fill:#00004c;"/>
   </g>
   <g id="patch_7">
    <path clip-path="url(#pf5decd67ce)" d="M 245.7 5046.4 
L 266.625 5046.4 
L 266.625 120.541837 
L 245.7 120.541837 
z
" style="fill:#0000db;"/>
   </g>
   <g id="patch_8">
    <path clip-path="url(#pf5decd67ce)" d="M 496.8 5046.4 
L 517.725 5046.4 
L 517.725 118.486421 
L 496.8 118.486421 
z
" style="fill:#0000db;"/>
   </g>
   <g id="patch_9">
    <path clip-path="url(#pf5decd67ce)" d="M 747.9 5046.4 
L 768.825 5046.4 
L 768.825 115.481649 
L 747.9 115.481649 
z
" style="fill:#0000db;"/>
   </g>
   <g id="patch_10">
    <path clip-path="url(#pf5decd67ce)" d="M 999 5046.4 
L 1019.925 5046.4 
L 1019.925 130.086334 
L 999 130.086334 
z
" style="fill:#0000db;"/>
   </g>
   <g id="patch_11">
    <path clip-path="url(#pf5decd67ce)" d="M 266.625 5046.4 
L 287.55 5046.4 
L 287.55 171.076359 
L 266.625 171.076359 
z
" style="fill:#9999ff;"/>
   </g>
   <g id="patch_12">
    <path clip-path="url(#pf5decd67ce)" d="M 517.725 5046.4 
L 538.65 5046.4 
L 538.65 120.142829 
L 517.725 120.142829 
z
" style="fill:#9999ff;"/>
   </g>
   <g id="patch_13">
    <path clip-path="url(#pf5decd67ce)" d="M 768.825 5046.4 
L 789.75 5046.4 
L 789.75 118.335148 
L 768.825 118.335148 
z
" style="fill:#9999ff;"/>
   </g>
   <g id="patch_14">
    <path clip-path="url(#pf5decd67ce)" d="M 1019.925 5046.4 
L 1040.85 5046.4 
L 1040.85 295.629301 
L 1019.925 295.629301 
z
" style="fill:#9999ff;"/>
   </g>
   <g id="patch_15">
    <path clip-path="url(#pf5decd67ce)" d="M 287.55 5046.4 
L 308.475 5046.4 
L 308.475 437.247793 
L 287.55 437.247793 
z
" style="fill:#ff9999;"/>
   </g>
   <g id="patch_16">
    <path clip-path="url(#pf5decd67ce)" d="M 538.65 5046.4 
L 559.575 5046.4 
L 559.575 361.596652 
L 538.65 361.596652 
z
" style="fill:#ff9999;"/>
   </g>
   <g id="patch_17">
    <path clip-path="url(#pf5decd67ce)" d="M 789.75 5046.4 
L 810.675 5046.4 
L 810.675 357.892154 
L 789.75 357.892154 
z
" style="fill:#ff9999;"/>
   </g>
   <g id="patch_18">
    <path clip-path="url(#pf5decd67ce)" d="M 1040.85 5046.4 
L 1061.775 5046.4 
L 1061.775 365.660511 
L 1040.85 365.660511 
z
" style="fill:#ff9999;"/>
   </g>
   <g id="patch_19">
    <path clip-path="url(#pf5decd67ce)" d="M 308.475 5046.4 
L 329.4 5046.4 
L 329.4 118.843541 
L 308.475 118.843541 
z
" style="fill:#e60000;"/>
   </g>
   <g id="patch_20">
    <path clip-path="url(#pf5decd67ce)" d="M 559.575 5046.4 
L 580.5 5046.4 
L 580.5 127.020522 
L 559.575 127.020522 
z
" style="fill:#e60000;"/>
   </g>
   <g id="patch_21">
    <path clip-path="url(#pf5decd67ce)" d="M 810.675 5046.4 
L 831.6 5046.4 
L 831.6 137.279211 
L 810.675 137.279211 
z
" style="fill:#e60000;"/>
   </g>
   <g id="patch_22">
    <path clip-path="url(#pf5decd67ce)" d="M 1061.775 5046.4 
L 1082.7 5046.4 
L 1082.7 185.988549 
L 1061.775 185.988549 
z
" style="fill:#e60000;"/>
   </g>
   <g id="patch_23">
    <path clip-path="url(#pf5decd67ce)" d="M 329.4 5046.4 
L 350.325 5046.4 
L 350.325 118.411672 
L 329.4 118.411672 
z
" style="fill:#800000;"/>
   </g>
   <g id="patch_24">
    <path clip-path="url(#pf5decd67ce)" d="M 580.5 5046.4 
L 601.425 5046.4 
L 601.425 129.483528 
L 580.5 129.483528 
z
" style="fill:#800000;"/>
   </g>
   <g id="patch_25">
    <path clip-path="url(#pf5decd67ce)" d="M 831.6 5046.4 
L 852.525 5046.4 
L 852.525 122.298341 
L 831.6 122.298341 
z
" style="fill:#800000;"/>
   </g>
   <g id="patch_26">
    <path clip-path="url(#pf5decd67ce)" d="M 1082.7 5046.4 
L 1103.625 5046.4 
L 1103.625 108.672754 
L 1082.7 108.672754 
z
" style="fill:#800000;"/>
   </g>
   <g id="matplotlib.axis_1">
    <g id="xtick_1">
     <g id="line2d_1">
      <defs>
       <path d="M 0 0 
L 0 3.5 
" id="m4f267eb729" style="stroke:#000000;stroke-width:0.8;"/>
      </defs>
      <g>
       <use style="stroke:#000000;stroke-width:0.8;" x="287.55" xlink:href="#m4f267eb729" y="512.64"/>
      </g>
     </g>
     <g id="text_1">
      <!-- bfs -->
      <g transform="translate(278.24144 531.035293)rotate(-1)scale(0.16 -0.16)">
       <defs>
        <path d="M 954 4416 
L 480 4416 
L 480 -13 
L 966 -13 
L 966 274 
C 1210 38 1504 -64 1766 -64 
C 2381 -64 2880 549 2880 1352 
C 2880 2086 2496 2756 1926 2756 
C 1523 2756 1165 2591 954 2419 
L 954 4416 
z
M 966 2046 
C 1107 2222 1306 2368 1587 2368 
C 1965 2368 2394 2097 2394 1352 
C 2394 558 1882 325 1530 325 
C 1402 325 1267 356 1139 464 
C 966 615 966 709 966 797 
L 966 2046 
z
" id="CMSS17-62" transform="scale(0.015625)"/>
        <path d="M 1075 2368 
L 1722 2368 
L 1722 2737 
L 1062 2737 
L 1062 3559 
C 1062 4014 1408 4092 1606 4092 
C 1670 4092 1850 4092 2080 4009 
L 2080 4429 
C 1933 4461 1754 4480 1613 4480 
C 1018 4480 602 3993 602 3359 
L 602 2737 
L 160 2737 
L 160 2368 
L 602 2368 
L 602 0 
L 1075 0 
L 1075 2368 
z
" id="CMSS17-66" transform="scale(0.015625)"/>
        <path d="M 2061 2627 
C 1683 2807 1389 2807 1197 2807 
C 742 2807 198 2648 198 2003 
C 198 1359 902 1218 1094 1179 
C 1389 1122 1715 1058 1715 740 
C 1715 337 1254 337 1171 337 
C 915 337 563 407 243 638 
L 166 210 
C 531 0 883 -64 1178 -64 
C 1965 -64 2163 416 2163 781 
C 2163 1094 1984 1305 1862 1401 
C 1651 1568 1574 1587 1050 1696 
C 960 1709 646 1779 646 2066 
C 646 2432 1050 2432 1139 2432 
C 1555 2432 1811 2303 1984 2208 
L 2061 2627 
z
" id="CMSS17-73" transform="scale(0.015625)"/>
       </defs>
       <use transform="scale(0.996264)" xlink:href="#CMSS17-62"/>
       <use transform="translate(48.204943 0)scale(0.996264)" xlink:href="#CMSS17-66"/>
       <use transform="translate(76.831602 0)scale(0.996264)" xlink:href="#CMSS17-73"/>
      </g>
     </g>
    </g>
    <g id="xtick_2">
     <g id="line2d_2">
      <g>
       <use style="stroke:#000000;stroke-width:0.8;" x="538.65" xlink:href="#m4f267eb729" y="512.64"/>
      </g>
     </g>
     <g id="text_2">
      <!-- matrix\_multi -->
      <g transform="translate(498.469141 532.113049)rotate(-1)scale(0.16 -0.16)">
       <defs>
        <path d="M 4288 1877 
C 4288 2308 4179 2816 3462 2816 
C 2982 2816 2694 2516 2566 2331 
C 2451 2670 2182 2816 1798 2816 
C 1363 2816 1088 2568 941 2389 
L 941 2758 
L 474 2758 
L 474 0 
L 960 0 
L 960 1559 
C 960 1939 1101 2428 1555 2428 
C 2138 2428 2138 2016 2138 1829 
L 2138 0 
L 2624 0 
L 2624 1559 
C 2624 1939 2765 2428 3219 2428 
C 3802 2428 3802 2016 3802 1829 
L 3802 0 
L 4288 0 
L 4288 1877 
z
" id="CMSS17-6d" transform="scale(0.015625)"/>
        <path d="M 2406 1791 
C 2406 2392 1978 2808 1402 2808 
C 1120 2808 813 2757 461 2553 
L 499 2135 
C 659 2248 934 2432 1395 2432 
C 1722 2432 1920 2180 1920 1782 
L 1920 1536 
C 896 1536 256 1238 256 726 
C 256 461 416 -64 947 -64 
C 1043 -64 1562 -64 1933 217 
L 1933 -19 
L 2406 -19 
L 2406 1791 
z
M 1920 816 
C 1920 701 1920 548 1728 434 
C 1562 325 1350 325 1261 325 
C 941 325 723 511 723 744 
C 723 1211 1722 1211 1920 1211 
L 1920 816 
z
" id="CMSS17-61" transform="scale(0.015625)"/>
        <path d="M 1069 2368 
L 1901 2368 
L 1901 2737 
L 1069 2737 
L 1069 3520 
L 614 3520 
L 614 2737 
L 109 2737 
L 109 2368 
L 602 2368 
L 602 749 
C 602 384 685 -64 1107 -64 
C 1427 -64 1722 25 2003 172 
L 1901 548 
C 1747 414 1562 337 1363 337 
C 1082 337 1069 696 1069 856 
L 1069 2368 
z
" id="CMSS17-74" transform="scale(0.015625)"/>
        <path d="M 954 1363 
C 954 1965 1395 2368 1958 2368 
L 1958 2789 
C 1549 2789 1165 2585 934 2253 
L 934 2758 
L 480 2758 
L 480 0 
L 954 0 
L 954 1363 
z
" id="CMSS17-72" transform="scale(0.015625)"/>
        <path d="M 979 4183 
L 442 4183 
L 442 3648 
L 979 3648 
L 979 4183 
z
M 947 2739 
L 474 2739 
L 474 0 
L 947 0 
L 947 2739 
z
" id="CMSS17-69" transform="scale(0.015625)"/>
        <path d="M 1587 1414 
L 2656 2739 
L 2099 2739 
L 1363 1777 
L 602 2739 
L 32 2739 
L 1139 1414 
L 0 0 
L 563 0 
L 1363 1121 
L 2195 0 
L 2758 0 
L 1587 1414 
z
" id="CMSS17-78" transform="scale(0.015625)"/>
        <path d="M 2618 2739 
L 2131 2739 
L 2131 972 
C 2131 498 1786 306 1421 306 
C 998 306 960 447 960 709 
L 960 2739 
L 474 2739 
L 474 678 
C 474 179 646 -64 1088 -64 
C 1306 -64 1798 -13 2144 306 
L 2144 0 
L 2618 0 
L 2618 2739 
z
" id="CMSS17-75" transform="scale(0.015625)"/>
        <path d="M 947 4416 
L 474 4416 
L 474 0 
L 947 0 
L 947 4416 
z
" id="CMSS17-6c" transform="scale(0.015625)"/>
       </defs>
       <use transform="scale(0.996264)" xlink:href="#CMSS17-6d"/>
       <use transform="translate(74.229254 0)scale(0.996264)" xlink:href="#CMSS17-61"/>
       <use transform="translate(119.151175 0)scale(0.996264)" xlink:href="#CMSS17-74"/>
       <use transform="translate(152.982742 0)scale(0.996264)" xlink:href="#CMSS17-72"/>
       <use transform="translate(184.892514 0)scale(0.996264)" xlink:href="#CMSS17-69"/>
       <use transform="translate(207.073237 0)scale(0.996264)" xlink:href="#CMSS17-78"/>
       <use transform="translate(283.800874 0)scale(0.996264)" xlink:href="#CMSS17-6d"/>
       <use transform="translate(358.030129 0)scale(0.996264)" xlink:href="#CMSS17-75"/>
       <use transform="translate(406.235072 0)scale(0.996264)" xlink:href="#CMSS17-6c"/>
       <use transform="translate(428.415795 0)scale(0.996264)" xlink:href="#CMSS17-74"/>
       <use transform="translate(462.247362 0)scale(0.996264)" xlink:href="#CMSS17-69"/>
       <path d="M 255.69439 0 
L 283.800874 0 
L 283.800874 0.3985 
L 255.69439 0.3985 
L 255.69439 0 
z
"/>
      </g>
     </g>
    </g>
    <g id="xtick_3">
     <g id="line2d_3">
      <g>
       <use style="stroke:#000000;stroke-width:0.8;" x="789.75" xlink:href="#m4f267eb729" y="512.64"/>
      </g>
     </g>
     <g id="text_3">
      <!-- matrix\_multi\_2 -->
      <g transform="translate(742.858736 532.34731)rotate(-1)scale(0.16 -0.16)">
       <defs>
        <path d="M 1651 1357 
C 1830 1541 2099 1764 2285 1987 
C 2464 2204 2701 2511 2701 2957 
C 2701 3657 2227 4288 1421 4288 
C 787 4288 422 3893 250 3274 
L 499 2929 
C 640 3510 838 3880 1338 3880 
C 1888 3880 2195 3433 2195 2942 
C 2195 2355 1747 1901 1408 1563 
C 1030 1187 659 804 301 408 
L 301 0 
L 2701 0 
L 2701 433 
L 1613 433 
C 1536 433 1459 433 1382 433 
L 742 433 
L 742 439 
L 1651 1357 
z
" id="CMSS17-32" transform="scale(0.015625)"/>
       </defs>
       <use transform="scale(0.996264)" xlink:href="#CMSS17-6d"/>
       <use transform="translate(74.229254 0)scale(0.996264)" xlink:href="#CMSS17-61"/>
       <use transform="translate(119.151175 0)scale(0.996264)" xlink:href="#CMSS17-74"/>
       <use transform="translate(152.982742 0)scale(0.996264)" xlink:href="#CMSS17-72"/>
       <use transform="translate(184.892514 0)scale(0.996264)" xlink:href="#CMSS17-69"/>
       <use transform="translate(207.073237 0)scale(0.996264)" xlink:href="#CMSS17-78"/>
       <use transform="translate(283.800874 0)scale(0.996264)" xlink:href="#CMSS17-6d"/>
       <use transform="translate(358.030129 0)scale(0.996264)" xlink:href="#CMSS17-75"/>
       <use transform="translate(406.235072 0)scale(0.996264)" xlink:href="#CMSS17-6c"/>
       <use transform="translate(428.415795 0)scale(0.996264)" xlink:href="#CMSS17-74"/>
       <use transform="translate(462.247362 0)scale(0.996264)" xlink:href="#CMSS17-69"/>
       <use transform="translate(518.15558 0)scale(0.996264)" xlink:href="#CMSS17-32"/>
       <path d="M 255.69439 0 
L 283.800874 0 
L 283.800874 0.3985 
L 255.69439 0.3985 
L 255.69439 0 
z
"/>
       <path d="M 490.049096 0 
L 518.15558 0 
L 518.15558 0.3985 
L 490.049096 0.3985 
L 490.049096 0 
z
"/>
      </g>
     </g>
    </g>
    <g id="xtick_4">
     <g id="line2d_4">
      <g>
       <use style="stroke:#000000;stroke-width:0.8;" x="1040.85" xlink:href="#m4f267eb729" y="512.64"/>
      </g>
     </g>
     <g id="text_4">
      <!-- quicksort -->
      <g transform="translate(1011.679369 531.728681)rotate(-1)scale(0.16 -0.16)">
       <defs>
        <path d="M 2611 2816 
L 2138 2816 
L 2138 2428 
C 2112 2460 1818 2816 1318 2816 
C 736 2816 211 2228 211 1399 
C 211 633 653 -5 1229 -5 
C 1498 -5 1837 91 2125 365 
L 2125 -1216 
L 2611 -1216 
L 2611 2816 
z
M 2138 914 
C 2138 832 2138 718 1939 554 
C 1888 510 1747 384 1504 384 
C 1050 384 698 850 698 1399 
C 698 2011 1126 2415 1562 2415 
C 1926 2415 2138 2061 2138 1797 
L 2138 914 
z
" id="CMSS17-71" transform="scale(0.015625)"/>
        <path d="M 2464 2541 
C 2464 2585 2170 2714 2093 2739 
C 1882 2816 1613 2816 1542 2816 
C 710 2816 211 2093 211 1363 
C 211 595 768 -64 1517 -64 
C 1946 -64 2253 76 2502 242 
L 2464 664 
C 2189 453 1869 337 1523 337 
C 1024 337 698 774 698 1369 
C 698 1831 909 2414 1549 2414 
C 1901 2414 2099 2343 2394 2145 
L 2464 2541 
z
" id="CMSS17-63" transform="scale(0.015625)"/>
        <path d="M 1696 1688 
L 2688 2739 
L 2074 2739 
L 954 1554 
L 954 4416 
L 480 4416 
L 480 0 
L 947 0 
L 947 892 
L 1376 1344 
L 2278 0 
L 2822 0 
L 1696 1688 
z
" id="CMSS17-6b" transform="scale(0.015625)"/>
        <path d="M 2829 1356 
C 2829 2176 2221 2816 1504 2816 
C 768 2816 173 2157 173 1356 
C 173 544 787 -64 1498 -64 
C 2227 -64 2829 563 2829 1356 
z
M 1504 337 
C 1050 337 659 709 659 1408 
C 659 2151 1114 2427 1498 2427 
C 1914 2427 2342 2126 2342 1408 
C 2342 683 1926 337 1504 337 
z
" id="CMSS17-6f" transform="scale(0.015625)"/>
       </defs>
       <use transform="scale(0.996264)" xlink:href="#CMSS17-71"/>
       <use transform="translate(48.204943 0)scale(0.996264)" xlink:href="#CMSS17-75"/>
       <use transform="translate(96.409886 0)scale(0.996264)" xlink:href="#CMSS17-69"/>
       <use transform="translate(118.590609 0)scale(0.996264)" xlink:href="#CMSS17-63"/>
       <use transform="translate(160.229431 0)scale(0.996264)" xlink:href="#CMSS17-6b"/>
       <use transform="translate(205.831921 0)scale(0.996264)" xlink:href="#CMSS17-73"/>
       <use transform="translate(241.745463 0)scale(0.996264)" xlink:href="#CMSS17-6f"/>
       <use transform="translate(285.986632 0)scale(0.996264)" xlink:href="#CMSS17-72"/>
       <use transform="translate(317.896405 0)scale(0.996264)" xlink:href="#CMSS17-74"/>
      </g>
     </g>
    </g>
    <g id="text_5">
     <!-- Programs -->
     <g transform="translate(626.969307 553.283311)scale(0.2 -0.2)">
      <defs>
       <path d="M 2106 1856 
C 2874 1856 3501 2453 3501 3158 
C 3501 3850 2899 4453 2067 4453 
L 570 4453 
L 570 0 
L 1107 0 
L 1107 1856 
L 2106 1856 
z
M 1926 4096 
C 2669 4096 2995 3627 2995 3157 
C 2995 2720 2694 2226 1926 2226 
L 1094 2226 
L 1094 4096 
L 1926 4096 
z
" id="CMSS17-50" transform="scale(0.015625)"/>
       <path d="M 2848 2808 
C 2483 2808 2170 2738 1914 2617 
C 1702 2777 1485 2808 1338 2808 
C 781 2808 358 2349 358 1814 
C 358 1468 550 1207 563 1195 
C 448 1035 384 863 384 672 
C 384 448 474 289 544 200 
C 211 -3 166 -314 166 -435 
C 166 -898 749 -1280 1498 -1280 
C 2253 -1280 2835 -898 2835 -428 
C 2835 448 1856 448 1587 448 
L 1069 448 
C 973 448 717 448 717 791 
C 717 921 774 1004 781 1010 
C 877 940 1075 832 1338 832 
C 1869 832 2310 1278 2310 1827 
C 2310 2132 2170 2355 2112 2432 
L 2131 2432 
C 2150 2432 2419 2432 2515 2432 
C 2720 2432 2739 2429 2918 2419 
L 2848 2808 
z
M 1338 1182 
C 1120 1182 813 1315 813 1823 
C 813 2375 1165 2464 1331 2464 
C 1549 2464 1856 2331 1856 1823 
C 1856 1271 1504 1182 1338 1182 
z
M 1581 -10 
C 1734 -10 2381 -10 2381 -442 
C 2381 -714 1984 -929 1504 -929 
C 1018 -929 621 -720 621 -435 
C 621 -403 621 -10 1062 -10 
L 1581 -10 
z
" id="CMSS17-67" transform="scale(0.015625)"/>
      </defs>
      <use transform="scale(0.996264)" xlink:href="#CMSS17-50"/>
      <use transform="translate(59.735586 0)scale(0.996264)" xlink:href="#CMSS17-72"/>
      <use transform="translate(91.645359 0)scale(0.996264)" xlink:href="#CMSS17-6f"/>
      <use transform="translate(138.488982 0)scale(0.996264)" xlink:href="#CMSS17-67"/>
      <use transform="translate(185.332606 0)scale(0.996264)" xlink:href="#CMSS17-72"/>
      <use transform="translate(217.242378 0)scale(0.996264)" xlink:href="#CMSS17-61"/>
      <use transform="translate(262.164299 0)scale(0.996264)" xlink:href="#CMSS17-6d"/>
      <use transform="translate(336.393553 0)scale(0.996264)" xlink:href="#CMSS17-73"/>
     </g>
    </g>
   </g>
   <g id="matplotlib.axis_2">
    <g id="ytick_1">
     <g id="line2d_5">
      <defs>
       <path d="M 0 0 
L -3.5 0 
" id="mf6c3035002" style="stroke:#000000;stroke-width:0.8;"/>
      </defs>
      <g>
       <use style="stroke:#000000;stroke-width:0.8;" x="162" xlink:href="#mf6c3035002" y="512.64"/>
      </g>
     </g>
     <g id="text_6">
      <!-- $\mathdefault{0.92}$ -->
      <g transform="translate(127.252491 518.174794)scale(0.16 -0.16)">
       <defs>
        <path d="M 2688 2025 
C 2688 2416 2682 3080 2413 3591 
C 2176 4039 1798 4198 1466 4198 
C 1158 4198 768 4058 525 3597 
C 269 3118 243 2524 243 2025 
C 243 1661 250 1106 448 619 
C 723 -39 1216 -128 1466 -128 
C 1760 -128 2208 -7 2470 600 
C 2662 1042 2688 1559 2688 2025 
z
M 1466 -26 
C 1056 -26 813 325 723 812 
C 653 1188 653 1738 653 2096 
C 653 2588 653 2997 736 3387 
C 858 3929 1216 4096 1466 4096 
C 1728 4096 2067 3923 2189 3400 
C 2272 3036 2278 2607 2278 2096 
C 2278 1680 2278 1169 2202 792 
C 2067 95 1690 -26 1466 -26 
z
" id="CMR17-30" transform="scale(0.015625)"/>
        <path d="M 1178 307 
C 1178 492 1024 619 870 619 
C 685 619 557 466 557 313 
C 557 128 710 0 864 0 
C 1050 0 1178 153 1178 307 
z
" id="CMMI12-3a" transform="scale(0.015625)"/>
        <path d="M 2253 1864 
C 2253 464 1670 31 1190 31 
C 1043 31 685 31 538 294 
C 704 268 826 357 826 518 
C 826 692 685 749 595 749 
C 538 749 365 723 365 506 
C 365 71 742 -128 1203 -128 
C 1939 -128 2688 674 2688 2073 
C 2688 3817 1971 4179 1485 4179 
C 851 4179 243 3628 243 2778 
C 243 1991 762 1408 1414 1408 
C 1952 1408 2189 1903 2253 2112 
L 2253 1864 
z
M 1427 1510 
C 1254 1510 1011 1542 813 1922 
C 678 2169 678 2461 678 2771 
C 678 3146 678 3405 858 3684 
C 947 3817 1114 4032 1485 4032 
C 2240 4032 2240 2885 2240 2632 
C 2240 2182 2035 1510 1427 1510 
z
" id="CMR17-39" transform="scale(0.015625)"/>
        <path d="M 2669 989 
L 2554 989 
C 2490 536 2438 459 2413 420 
C 2381 369 1920 369 1830 369 
L 602 369 
C 832 619 1280 1072 1824 1597 
C 2214 1967 2669 2402 2669 3035 
C 2669 3790 2067 4224 1395 4224 
C 691 4224 262 3604 262 3030 
C 262 2780 448 2748 525 2748 
C 589 2748 781 2787 781 3010 
C 781 3207 614 3264 525 3264 
C 486 3264 448 3258 422 3245 
C 544 3790 915 4058 1306 4058 
C 1862 4058 2227 3617 2227 3035 
C 2227 2479 1901 2000 1536 1584 
L 262 146 
L 262 0 
L 2515 0 
L 2669 989 
z
" id="CMR17-32" transform="scale(0.015625)"/>
       </defs>
       <use transform="scale(0.996264)" xlink:href="#CMR17-30"/>
       <use transform="translate(45.690477 0)scale(0.996264)" xlink:href="#CMMI12-3a"/>
       <use transform="translate(72.787654 0)scale(0.996264)" xlink:href="#CMR17-39"/>
       <use transform="translate(118.478131 0)scale(0.996264)" xlink:href="#CMR17-32"/>
      </g>
     </g>
    </g>
    <g id="ytick_2">
     <g id="line2d_6">
      <g>
       <use style="stroke:#000000;stroke-width:0.8;" x="162" xlink:href="#mf6c3035002" y="463.36"/>
      </g>
     </g>
     <g id="text_7">
      <!-- $\mathdefault{0.93}$ -->
      <g transform="translate(127.252491 468.894794)scale(0.16 -0.16)">
       <defs>
        <path d="M 1414 2157 
C 1984 2157 2234 1662 2234 1090 
C 2234 320 1824 25 1453 25 
C 1114 25 563 194 390 693 
C 422 680 454 680 486 680 
C 640 680 755 782 755 948 
C 755 1133 614 1216 486 1216 
C 378 1216 211 1165 211 926 
C 211 335 787 -128 1466 -128 
C 2176 -128 2720 430 2720 1085 
C 2720 1707 2208 2157 1600 2227 
C 2086 2328 2554 2756 2554 3329 
C 2554 3820 2048 4179 1472 4179 
C 890 4179 378 3829 378 3329 
C 378 3110 544 3072 627 3072 
C 762 3072 877 3155 877 3321 
C 877 3486 762 3569 627 3569 
C 602 3569 570 3569 544 3557 
C 730 3959 1235 4032 1459 4032 
C 1683 4032 2106 3925 2106 3320 
C 2106 3143 2080 2828 1862 2550 
C 1670 2304 1453 2304 1242 2284 
C 1210 2284 1062 2269 1037 2269 
C 992 2263 966 2257 966 2208 
C 966 2163 973 2157 1101 2157 
L 1414 2157 
z
" id="CMR17-33" transform="scale(0.015625)"/>
       </defs>
       <use transform="scale(0.996264)" xlink:href="#CMR17-30"/>
       <use transform="translate(45.690477 0)scale(0.996264)" xlink:href="#CMMI12-3a"/>
       <use transform="translate(72.787654 0)scale(0.996264)" xlink:href="#CMR17-39"/>
       <use transform="translate(118.478131 0)scale(0.996264)" xlink:href="#CMR17-33"/>
      </g>
     </g>
    </g>
    <g id="ytick_3">
     <g id="line2d_7">
      <g>
       <use style="stroke:#000000;stroke-width:0.8;" x="162" xlink:href="#mf6c3035002" y="414.08"/>
      </g>
     </g>
     <g id="text_8">
      <!-- $\mathdefault{0.94}$ -->
      <g transform="translate(127.252491 419.614794)scale(0.16 -0.16)">
       <defs>
        <path d="M 2150 4122 
C 2150 4256 2144 4256 2029 4256 
L 128 1254 
L 128 1088 
L 1779 1088 
L 1779 457 
C 1779 224 1766 160 1318 160 
L 1197 160 
L 1197 0 
C 1402 0 1747 0 1965 0 
C 2182 0 2528 0 2733 0 
L 2733 160 
L 2611 160 
C 2163 160 2150 224 2150 457 
L 2150 1088 
L 2803 1088 
L 2803 1254 
L 2150 1254 
L 2150 4122 
z
M 1798 3703 
L 1798 1254 
L 256 1254 
L 1798 3703 
z
" id="CMR17-34" transform="scale(0.015625)"/>
       </defs>
       <use transform="scale(0.996264)" xlink:href="#CMR17-30"/>
       <use transform="translate(45.690477 0)scale(0.996264)" xlink:href="#CMMI12-3a"/>
       <use transform="translate(72.787654 0)scale(0.996264)" xlink:href="#CMR17-39"/>
       <use transform="translate(118.478131 0)scale(0.996264)" xlink:href="#CMR17-34"/>
      </g>
     </g>
    </g>
    <g id="ytick_4">
     <g id="line2d_8">
      <g>
       <use style="stroke:#000000;stroke-width:0.8;" x="162" xlink:href="#mf6c3035002" y="364.8"/>
      </g>
     </g>
     <g id="text_9">
      <!-- $\mathdefault{0.95}$ -->
      <g transform="translate(127.252491 370.334794)scale(0.16 -0.16)">
       <defs>
        <path d="M 730 3692 
C 794 3666 1056 3584 1325 3584 
C 1920 3584 2246 3911 2432 4100 
C 2432 4157 2432 4192 2394 4192 
C 2387 4192 2374 4192 2323 4163 
C 2099 4058 1837 3973 1517 3973 
C 1325 3973 1037 3999 723 4139 
C 653 4171 640 4171 634 4171 
C 602 4171 595 4164 595 4037 
L 595 2203 
C 595 2089 595 2057 659 2057 
C 691 2057 704 2070 736 2114 
C 941 2401 1222 2522 1542 2522 
C 1766 2522 2246 2382 2246 1289 
C 2246 1085 2246 715 2054 421 
C 1894 159 1645 25 1370 25 
C 947 25 518 320 403 814 
C 429 807 480 795 506 795 
C 589 795 749 840 749 1038 
C 749 1210 627 1280 506 1280 
C 358 1280 262 1190 262 1011 
C 262 454 704 -128 1382 -128 
C 2042 -128 2669 440 2669 1264 
C 2669 2030 2170 2624 1549 2624 
C 1222 2624 947 2503 730 2274 
L 730 3692 
z
" id="CMR17-35" transform="scale(0.015625)"/>
       </defs>
       <use transform="scale(0.996264)" xlink:href="#CMR17-30"/>
       <use transform="translate(45.690477 0)scale(0.996264)" xlink:href="#CMMI12-3a"/>
       <use transform="translate(72.787654 0)scale(0.996264)" xlink:href="#CMR17-39"/>
       <use transform="translate(118.478131 0)scale(0.996264)" xlink:href="#CMR17-35"/>
      </g>
     </g>
    </g>
    <g id="ytick_5">
     <g id="line2d_9">
      <g>
       <use style="stroke:#000000;stroke-width:0.8;" x="162" xlink:href="#mf6c3035002" y="315.52"/>
      </g>
     </g>
     <g id="text_10">
      <!-- $\mathdefault{0.96}$ -->
      <g transform="translate(127.252491 321.054794)scale(0.16 -0.16)">
       <defs>
        <path d="M 678 2176 
C 678 3690 1395 4032 1811 4032 
C 1946 4032 2272 4009 2400 3776 
C 2298 3776 2106 3776 2106 3553 
C 2106 3381 2246 3323 2336 3323 
C 2394 3323 2566 3348 2566 3560 
C 2566 3954 2246 4179 1805 4179 
C 1043 4179 243 3390 243 1984 
C 243 253 966 -128 1478 -128 
C 2099 -128 2688 427 2688 1283 
C 2688 2081 2170 2662 1517 2662 
C 1126 2662 838 2407 678 1960 
L 678 2176 
z
M 1478 25 
C 691 25 691 1200 691 1436 
C 691 1896 909 2560 1504 2560 
C 1613 2560 1926 2560 2138 2120 
C 2253 1870 2253 1609 2253 1289 
C 2253 944 2253 690 2118 434 
C 1978 171 1773 25 1478 25 
z
" id="CMR17-36" transform="scale(0.015625)"/>
       </defs>
       <use transform="scale(0.996264)" xlink:href="#CMR17-30"/>
       <use transform="translate(45.690477 0)scale(0.996264)" xlink:href="#CMMI12-3a"/>
       <use transform="translate(72.787654 0)scale(0.996264)" xlink:href="#CMR17-39"/>
       <use transform="translate(118.478131 0)scale(0.996264)" xlink:href="#CMR17-36"/>
      </g>
     </g>
    </g>
    <g id="ytick_6">
     <g id="line2d_10">
      <g>
       <use style="stroke:#000000;stroke-width:0.8;" x="162" xlink:href="#mf6c3035002" y="266.24"/>
      </g>
     </g>
     <g id="text_11">
      <!-- $\mathdefault{0.97}$ -->
      <g transform="translate(127.252491 271.774794)scale(0.16 -0.16)">
       <defs>
        <path d="M 2886 3941 
L 2886 4081 
L 1382 4081 
C 634 4081 621 4165 595 4288 
L 480 4288 
L 294 3094 
L 410 3094 
C 429 3215 474 3540 550 3661 
C 589 3712 1062 3712 1171 3712 
L 2579 3712 
L 1869 2661 
C 1395 1954 1069 999 1069 165 
C 1069 89 1069 -128 1299 -128 
C 1530 -128 1530 89 1530 171 
L 1530 465 
C 1530 1508 1709 2196 2003 2636 
L 2886 3941 
z
" id="CMR17-37" transform="scale(0.015625)"/>
       </defs>
       <use transform="scale(0.996264)" xlink:href="#CMR17-30"/>
       <use transform="translate(45.690477 0)scale(0.996264)" xlink:href="#CMMI12-3a"/>
       <use transform="translate(72.787654 0)scale(0.996264)" xlink:href="#CMR17-39"/>
       <use transform="translate(118.478131 0)scale(0.996264)" xlink:href="#CMR17-37"/>
      </g>
     </g>
    </g>
    <g id="ytick_7">
     <g id="line2d_11">
      <g>
       <use style="stroke:#000000;stroke-width:0.8;" x="162" xlink:href="#mf6c3035002" y="216.96"/>
      </g>
     </g>
     <g id="text_12">
      <!-- $\mathdefault{0.98}$ -->
      <g transform="translate(127.252491 222.494794)scale(0.16 -0.16)">
       <defs>
        <path d="M 1741 2264 
C 2144 2467 2554 2773 2554 3263 
C 2554 3841 1990 4179 1472 4179 
C 890 4179 378 3759 378 3180 
C 378 3021 416 2747 666 2505 
C 730 2442 998 2251 1171 2130 
C 883 1983 211 1634 211 934 
C 211 279 838 -128 1459 -128 
C 2144 -128 2720 362 2720 1010 
C 2720 1590 2330 1857 2074 2029 
L 1741 2264 
z
M 902 2822 
C 851 2854 595 3051 595 3351 
C 595 3739 998 4032 1459 4032 
C 1965 4032 2336 3676 2336 3262 
C 2336 2669 1670 2331 1638 2331 
C 1632 2331 1626 2331 1574 2370 
L 902 2822 
z
M 2080 1519 
C 2176 1449 2483 1240 2483 851 
C 2483 381 2010 25 1472 25 
C 890 25 448 438 448 940 
C 448 1443 838 1862 1280 2060 
L 2080 1519 
z
" id="CMR17-38" transform="scale(0.015625)"/>
       </defs>
       <use transform="scale(0.996264)" xlink:href="#CMR17-30"/>
       <use transform="translate(45.690477 0)scale(0.996264)" xlink:href="#CMMI12-3a"/>
       <use transform="translate(72.787654 0)scale(0.996264)" xlink:href="#CMR17-39"/>
       <use transform="translate(118.478131 0)scale(0.996264)" xlink:href="#CMR17-38"/>
      </g>
     </g>
    </g>
    <g id="ytick_8">
     <g id="line2d_12">
      <g>
       <use style="stroke:#000000;stroke-width:0.8;" x="162" xlink:href="#mf6c3035002" y="167.68"/>
      </g>
     </g>
     <g id="text_13">
      <!-- $\mathdefault{0.99}$ -->
      <g transform="translate(127.252491 173.214794)scale(0.16 -0.16)">
       <use transform="scale(0.996264)" xlink:href="#CMR17-30"/>
       <use transform="translate(45.690477 0)scale(0.996264)" xlink:href="#CMMI12-3a"/>
       <use transform="translate(72.787654 0)scale(0.996264)" xlink:href="#CMR17-39"/>
       <use transform="translate(118.478131 0)scale(0.996264)" xlink:href="#CMR17-39"/>
      </g>
     </g>
    </g>
    <g id="ytick_9">
     <g id="line2d_13">
      <g>
       <use style="stroke:#000000;stroke-width:0.8;" x="162" xlink:href="#mf6c3035002" y="118.4"/>
      </g>
     </g>
     <g id="text_14">
      <!-- $\mathdefault{1.00}$ -->
      <g transform="translate(127.252491 123.934794)scale(0.16 -0.16)">
       <defs>
        <path d="M 1702 4058 
C 1702 4192 1696 4192 1606 4192 
C 1357 3916 979 3827 621 3827 
C 602 3827 570 3827 563 3808 
C 557 3795 557 3782 557 3648 
C 755 3648 1088 3686 1344 3839 
L 1344 461 
C 1344 236 1331 160 781 160 
L 589 160 
L 589 0 
C 896 0 1216 0 1523 0 
C 1830 0 2150 0 2458 0 
L 2458 160 
L 2266 160 
C 1715 160 1702 230 1702 458 
L 1702 4058 
z
" id="CMR17-31" transform="scale(0.015625)"/>
       </defs>
       <use transform="scale(0.996264)" xlink:href="#CMR17-31"/>
       <use transform="translate(45.690477 0)scale(0.996264)" xlink:href="#CMMI12-3a"/>
       <use transform="translate(72.787654 0)scale(0.996264)" xlink:href="#CMR17-30"/>
       <use transform="translate(118.478131 0)scale(0.996264)" xlink:href="#CMR17-30"/>
      </g>
     </g>
    </g>
    <g id="ytick_10">
     <g id="line2d_14">
      <g>
       <use style="stroke:#000000;stroke-width:0.8;" x="162" xlink:href="#mf6c3035002" y="69.12"/>
      </g>
     </g>
     <g id="text_15">
      <!-- $\mathdefault{1.01}$ -->
      <g transform="translate(127.252491 74.654794)scale(0.16 -0.16)">
       <use transform="scale(0.996264)" xlink:href="#CMR17-31"/>
       <use transform="translate(45.690477 0)scale(0.996264)" xlink:href="#CMMI12-3a"/>
       <use transform="translate(72.787654 0)scale(0.996264)" xlink:href="#CMR17-30"/>
       <use transform="translate(118.478131 0)scale(0.996264)" xlink:href="#CMR17-31"/>
      </g>
     </g>
    </g>
    <g id="text_16">
     <!-- Normalised IPC -->
     <g transform="translate(119.376857 351.688642)rotate(-90)scale(0.2 -0.2)">
      <defs>
       <path d="M 1466 4180 
L 1350 4416 
L 563 4416 
L 563 0 
L 1062 0 
L 1062 3926 
L 1069 3932 
C 1114 3817 1139 3760 1402 3194 
L 2771 236 
L 2886 0 
L 3674 0 
L 3674 4416 
L 3174 4416 
L 3174 490 
L 3168 483 
C 3123 598 3098 655 2835 1221 
L 1466 4180 
z
" id="CMSS17-4e" transform="scale(0.015625)"/>
       <path d="M 2502 1377 
C 2502 1590 2490 2003 2285 2345 
C 2061 2713 1696 2816 1421 2816 
C 755 2816 192 2188 192 1375 
C 192 582 774 -64 1510 -64 
C 1798 -64 2150 19 2470 248 
C 2470 274 2458 414 2451 420 
C 2451 433 2432 630 2432 656 
C 2125 407 1773 325 1517 325 
C 1107 325 666 667 646 1377 
L 2502 1377 
z
M 698 1728 
C 781 2084 1062 2421 1421 2421 
C 1517 2421 1965 2421 2080 1728 
L 698 1728 
z
" id="CMSS17-65" transform="scale(0.015625)"/>
       <path d="M 2611 4416 
L 2138 4416 
L 2138 2438 
C 1939 2603 1613 2756 1254 2756 
C 672 2756 211 2131 211 1347 
C 211 562 666 -64 1235 -64 
C 1677 -64 1971 172 2125 306 
L 2125 -13 
L 2611 -13 
L 2611 4416 
z
M 2125 836 
C 2125 747 2125 653 1926 482 
C 1798 375 1645 325 1498 325 
C 1152 325 698 576 698 1340 
C 698 2134 1210 2368 1562 2368 
C 1798 2368 1990 2254 2125 2065 
L 2125 836 
z
" id="CMSS17-64" transform="scale(0.015625)"/>
       <path d="M 1094 4416 
L 557 4416 
L 557 0 
L 1094 0 
L 1094 4416 
z
" id="CMSS17-49" transform="scale(0.015625)"/>
       <path d="M 3501 714 
C 3072 427 2874 344 2355 344 
C 1459 344 934 1303 934 2179 
C 934 3112 1472 4032 2381 4032 
C 2790 4032 3059 3918 3386 3715 
L 3475 4217 
C 3168 4370 2778 4440 2387 4440 
C 1158 4440 397 3316 397 2179 
C 397 927 1299 -64 2323 -64 
C 2874 -64 3066 -19 3539 280 
L 3501 714 
z
" id="CMSS17-43" transform="scale(0.015625)"/>
      </defs>
      <use transform="scale(0.996264)" xlink:href="#CMSS17-4e"/>
      <use transform="translate(66.061519 0)scale(0.996264)" xlink:href="#CMSS17-6f"/>
      <use transform="translate(110.302689 0)scale(0.996264)" xlink:href="#CMSS17-72"/>
      <use transform="translate(142.212461 0)scale(0.996264)" xlink:href="#CMSS17-6d"/>
      <use transform="translate(216.441716 0)scale(0.996264)" xlink:href="#CMSS17-61"/>
      <use transform="translate(261.363636 0)scale(0.996264)" xlink:href="#CMSS17-6c"/>
      <use transform="translate(283.544359 0)scale(0.996264)" xlink:href="#CMSS17-69"/>
      <use transform="translate(305.725082 0)scale(0.996264)" xlink:href="#CMSS17-73"/>
      <use transform="translate(341.638624 0)scale(0.996264)" xlink:href="#CMSS17-65"/>
      <use transform="translate(383.277447 0)scale(0.996264)" xlink:href="#CMSS17-64"/>
      <use transform="translate(462.711502 0)scale(0.996264)" xlink:href="#CMSS17-49"/>
      <use transform="translate(488.495428 0)scale(0.996264)" xlink:href="#CMSS17-50"/>
      <use transform="translate(548.231014 0)scale(0.996264)" xlink:href="#CMSS17-43"/>
     </g>
    </g>
   </g>
   <g id="patch_27">
    <path d="M 162 512.64 
L 162 69.12 
" style="fill:none;stroke:#000000;stroke-linecap:square;stroke-linejoin:miter;stroke-width:0.8;"/>
   </g>
   <g id="patch_28">
    <path d="M 1166.4 512.64 
L 1166.4 69.12 
" style="fill:none;stroke:#000000;stroke-linecap:square;stroke-linejoin:miter;stroke-width:0.8;"/>
   </g>
   <g id="patch_29">
    <path d="M 162 512.64 
L 1166.4 512.64 
" style="fill:none;stroke:#000000;stroke-linecap:square;stroke-linejoin:miter;stroke-width:0.8;"/>
   </g>
   <g id="patch_30">
    <path d="M 162 69.12 
L 1166.4 69.12 
" style="fill:none;stroke:#000000;stroke-linecap:square;stroke-linejoin:miter;stroke-width:0.8;"/>
   </g>
   <g id="text_17">
    <!-- \textbf{Attained IPC Speedup (Normalised)} -->
    <g transform="translate(482.195961 63.12)scale(0.22 -0.22)">
     <defs>
      <path d="M 3034 4202 
C 2938 4480 2752 4480 2624 4480 
L 2061 4480 
C 1933 4480 1747 4480 1651 4202 
L 301 303 
C 269 220 269 207 269 175 
C 269 0 429 0 518 0 
L 749 0 
C 864 0 1062 0 1152 254 
L 1402 960 
L 3174 960 
L 3392 350 
C 3469 127 3514 0 3821 0 
L 4166 0 
C 4256 0 4416 0 4416 172 
C 4416 204 4416 217 4384 301 
L 3034 4202 
z
M 2054 2891 
C 2150 3176 2234 3422 2285 3656 
L 2291 3656 
C 2323 3501 2323 3488 2374 3338 
L 2982 1516 
L 1594 1516 
L 2054 2891 
z
" id="CMSSBX10-41" transform="scale(0.015625)"/>
      <path d="M 1395 2496 
L 1965 2496 
C 2042 2496 2272 2496 2272 2729 
C 2272 2962 2042 2962 1965 2962 
L 1395 2962 
L 1395 3498 
C 1395 3705 1350 3808 1088 3808 
L 890 3808 
C 659 3808 582 3737 582 3498 
L 582 2962 
L 435 2962 
C 365 2962 128 2962 128 2729 
C 128 2496 358 2496 435 2496 
L 563 2496 
L 563 864 
C 563 213 794 -64 1235 -64 
C 1293 -64 1574 -64 1907 39 
C 2016 72 2387 188 2387 311 
C 2387 330 2374 376 2336 510 
C 2304 639 2291 678 2234 678 
C 2202 678 2195 671 2157 632 
C 2086 582 1914 440 1645 440 
C 1491 440 1395 550 1395 975 
L 1395 2496 
z
" id="CMSSBX10-74" transform="scale(0.015625)"/>
      <path d="M 2970 2050 
C 2970 3072 1997 3072 1677 3072 
C 1376 3072 1056 3046 627 2868 
C 493 2811 461 2792 461 2722 
C 461 2677 499 2300 506 2248 
C 512 2209 544 2177 589 2177 
C 621 2177 640 2196 659 2216 
C 934 2508 1254 2651 1651 2651 
C 1997 2651 2099 2435 2099 2049 
L 2099 1820 
C 1875 1820 198 1820 198 868 
C 198 415 557 -64 1120 -64 
C 1338 -64 1818 1 2118 447 
L 2118 317 
C 2118 110 2163 7 2426 7 
L 2662 7 
C 2906 7 2970 91 2970 317 
L 2970 2050 
z
M 2099 988 
C 2099 402 1491 402 1472 402 
C 1203 402 1030 639 1030 889 
C 1030 1536 1920 1536 2099 1536 
L 2099 988 
z
" id="CMSSBX10-61" transform="scale(0.015625)"/>
      <path d="M 653 4480 
C 448 4480 346 4441 346 4182 
L 346 3885 
C 346 3678 410 3594 646 3594 
L 979 3594 
C 1286 3594 1286 3730 1286 4034 
C 1286 4344 1286 4480 979 4480 
L 653 4480 
z
M 1242 2634 
C 1242 2841 1197 2944 934 2944 
L 698 2944 
C 467 2944 390 2873 390 2634 
L 390 292 
C 390 60 461 -18 698 -18 
L 934 -18 
C 1178 -18 1242 66 1242 292 
L 1242 2634 
z
" id="CMSSBX10-69" transform="scale(0.015625)"/>
      <path d="M 3200 2096 
C 3200 2761 2918 3025 2266 3025 
C 1594 3025 1306 2535 1222 2360 
L 1216 2360 
L 1216 2687 
C 1216 2896 1171 3001 909 3001 
L 691 3001 
C 461 3001 384 2930 384 2690 
L 384 310 
C 384 78 454 0 691 0 
L 947 0 
C 1190 0 1254 84 1254 309 
L 1254 1735 
C 1254 2295 1626 2560 1958 2560 
C 2266 2560 2330 2411 2330 2082 
L 2330 309 
C 2330 103 2374 0 2637 0 
L 2893 0 
C 3136 0 3200 84 3200 309 
L 3200 2096 
z
" id="CMSSBX10-6e" transform="scale(0.015625)"/>
      <path d="M 2758 1385 
C 2906 1385 3066 1385 3066 1678 
C 3066 2514 2682 3072 1728 3072 
C 704 3072 198 2491 198 1510 
C 198 452 806 -64 1811 -64 
C 2054 -64 2419 -32 2842 182 
C 2982 253 3027 272 3027 350 
C 3027 395 3008 582 3002 633 
C 2976 833 2970 839 2912 839 
C 2886 839 2874 839 2803 775 
C 2426 447 2042 402 1837 402 
C 1114 402 1037 974 1018 1385 
L 2758 1385 
z
M 1024 1728 
C 1043 2122 1171 2606 1728 2606 
C 2240 2606 2336 2231 2355 1728 
L 1024 1728 
z
" id="CMSSBX10-65" transform="scale(0.015625)"/>
      <path d="M 3194 4170 
C 3194 4377 3149 4480 2886 4480 
L 2650 4480 
C 2406 4480 2342 4396 2342 4170 
L 2342 2702 
C 2054 2980 1734 3025 1536 3025 
C 237 3025 237 1782 237 1465 
C 237 1167 237 -82 1504 -82 
C 1773 -82 2048 -5 2323 294 
C 2323 57 2413 -8 2630 -8 
L 2886 -8 
C 3130 -8 3194 76 3194 302 
L 3194 4170 
z
M 2323 798 
C 2323 687 2323 629 2138 500 
C 1978 396 1830 384 1754 384 
C 1107 384 1107 980 1107 1465 
C 1107 1951 1107 2560 1824 2560 
C 2010 2560 2182 2495 2323 2359 
L 2323 798 
z
" id="CMSSBX10-64" transform="scale(0.015625)"/>
      <path d="M 1530 4170 
C 1530 4377 1485 4480 1222 4480 
L 896 4480 
C 666 4480 589 4409 589 4170 
L 589 302 
C 589 70 659 -8 896 -8 
L 1222 -8 
C 1466 -8 1530 76 1530 302 
L 1530 4170 
z
" id="CMSSBX10-49" transform="scale(0.015625)"/>
      <path d="M 1523 1728 
L 2496 1728 
C 3501 1728 4102 2155 4102 3085 
C 4102 4060 3475 4480 2490 4480 
L 890 4480 
C 659 4480 582 4409 582 4170 
L 582 298 
C 582 66 653 -12 890 -12 
L 1216 -12 
C 1459 -12 1523 72 1523 299 
L 1523 1728 
z
M 2291 3924 
C 3130 3924 3213 3537 3213 3085 
C 3213 2652 3142 2239 2285 2239 
L 1504 2239 
L 1504 3924 
L 2291 3924 
z
" id="CMSSBX10-50" transform="scale(0.015625)"/>
      <path d="M 4096 925 
C 4096 977 4051 1002 4026 1002 
C 3872 1002 3686 583 2784 583 
C 1658 583 1338 1280 1338 2247 
C 1338 3207 1683 3904 2733 3904 
C 3302 3904 3603 3678 3776 3536 
C 3814 3504 3834 3478 3878 3478 
C 3904 3478 3936 3510 3942 3536 
L 4070 4253 
C 4077 4279 4070 4305 4019 4324 
C 3642 4466 3251 4557 2752 4557 
C 1190 4557 390 3789 390 2253 
C 390 672 1203 -64 2758 -64 
C 3302 -64 3642 14 4109 305 
C 4160 337 4147 383 4147 383 
L 4096 925 
z
" id="CMSSBX10-43" transform="scale(0.015625)"/>
      <path d="M 1728 2867 
C 1587 2899 1190 3049 1190 3418 
C 1190 3968 1734 3968 1952 3968 
C 2310 3968 2630 3884 2944 3574 
C 3046 3477 3053 3471 3078 3471 
C 3117 3471 3149 3490 3168 3587 
L 3264 4152 
C 3277 4203 3277 4216 3277 4236 
C 3277 4288 3270 4295 3110 4380 
C 2656 4608 2278 4641 1952 4641 
C 1382 4641 390 4505 390 3290 
C 390 2829 627 2531 749 2401 
C 1075 2063 1376 1998 1875 1882 
C 2234 1798 2374 1765 2515 1635 
C 2579 1571 2714 1434 2714 1187 
C 2714 577 2163 577 1952 577 
C 1414 577 947 795 627 1083 
C 550 1159 538 1159 512 1159 
C 474 1159 442 1140 422 1042 
L 326 476 
C 314 424 314 411 314 392 
C 314 255 979 21 1011 8 
C 1440 -128 1786 -128 1952 -128 
C 2912 -128 3514 305 3514 1308 
C 3514 2033 2982 2576 2342 2725 
L 1728 2867 
z
" id="CMSSBX10-53" transform="scale(0.015625)"/>
      <path d="M 1261 242 
C 1549 -82 1901 -82 1990 -82 
C 3347 -82 3347 1154 3347 1476 
C 3347 1791 3347 3008 2189 3008 
C 1811 3008 1472 2853 1242 2633 
C 1242 2872 1152 2937 934 2937 
L 698 2937 
C 467 2937 390 2866 390 2627 
L 390 -969 
C 390 -1202 461 -1280 698 -1280 
L 954 -1280 
C 1197 -1280 1261 -1195 1261 -966 
L 1261 242 
z
M 1261 2292 
C 1331 2356 1542 2504 1818 2504 
C 2470 2504 2477 1746 2477 1463 
C 2477 1206 2477 384 1754 384 
C 1606 384 1491 435 1414 492 
C 1261 602 1261 634 1261 750 
L 1261 2292 
z
" id="CMSSBX10-70" transform="scale(0.015625)"/>
      <path d="M 3200 2652 
C 3200 2859 3155 2962 2893 2962 
L 2637 2962 
C 2394 2962 2330 2878 2330 2653 
L 2330 1124 
C 2330 698 2106 330 1651 330 
C 1293 330 1254 421 1254 763 
L 1254 2653 
C 1254 2859 1210 2962 947 2962 
L 691 2962 
C 461 2962 384 2891 384 2653 
L 384 820 
C 384 130 755 -64 1421 -64 
C 1594 -64 2048 -64 2349 485 
L 2349 314 
C 2349 104 2394 0 2656 0 
L 2893 0 
C 3136 0 3200 84 3200 310 
L 3200 2652 
z
" id="CMSSBX10-75" transform="scale(0.015625)"/>
      <path d="M 2054 4864 
C 1939 4864 1926 4864 1811 4760 
C 1043 4107 550 3002 550 1632 
C 550 849 710 -501 1779 -1477 
C 1914 -1600 1926 -1600 2054 -1600 
L 2170 -1600 
C 2272 -1600 2342 -1600 2342 -1516 
C 2342 -1496 2342 -1483 2266 -1399 
C 1862 -901 1421 -107 1421 1632 
C 1421 3532 1952 4281 2304 4708 
C 2330 4741 2342 4754 2342 4779 
C 2342 4864 2272 4864 2170 4864 
L 2054 4864 
z
" id="CMSSBX10-28" transform="scale(0.015625)"/>
      <path d="M 1939 4222 
C 1805 4480 1613 4480 1485 4480 
L 890 4480 
C 659 4480 582 4409 582 4170 
L 582 302 
C 582 70 653 -8 890 -8 
L 1062 -8 
C 1306 -8 1370 76 1370 302 
L 1370 3698 
L 1376 3698 
L 3136 251 
C 3270 -8 3462 -8 3590 -8 
L 4186 -8 
C 4429 -8 4493 76 4493 302 
L 4493 4170 
C 4493 4377 4448 4480 4186 4480 
L 4013 4480 
C 3770 4480 3706 4396 3706 4170 
L 3706 774 
L 3699 774 
L 1939 4222 
z
" id="CMSSBX10-4e" transform="scale(0.015625)"/>
      <path d="M 3315 1459 
C 3315 2517 2803 3072 1760 3072 
C 691 3072 198 2497 198 1459 
C 198 407 749 -64 1754 -64 
C 2758 -64 3315 401 3315 1459 
z
M 1760 440 
C 1069 440 1069 1020 1069 1536 
C 1069 2033 1069 2606 1754 2606 
C 2445 2606 2445 2039 2445 1536 
C 2445 1027 2445 440 1760 440 
z
" id="CMSSBX10-6f" transform="scale(0.015625)"/>
      <path d="M 1242 1496 
C 1242 2115 1747 2368 2150 2368 
C 2266 2368 2278 2368 2278 2555 
L 2278 2860 
C 2278 2989 2278 3034 2163 3034 
C 1984 3034 1517 2970 1216 2271 
L 1210 2271 
L 1210 2690 
C 1210 2897 1165 3001 902 3001 
L 698 3001 
C 467 3001 390 2930 390 2690 
L 390 310 
C 390 78 461 0 698 0 
L 934 0 
C 1178 0 1242 84 1242 312 
L 1242 1496 
z
" id="CMSSBX10-72" transform="scale(0.015625)"/>
      <path d="M 5158 2096 
C 5158 2761 4877 3025 4224 3025 
C 3770 3025 3418 2812 3187 2386 
C 3085 3012 2541 3012 2272 3012 
C 2150 3012 1882 3012 1594 2803 
C 1395 2658 1267 2455 1222 2360 
L 1216 2360 
L 1216 2687 
C 1216 2896 1171 3001 909 3001 
L 691 3001 
C 461 3001 384 2930 384 2690 
L 384 310 
C 384 78 454 0 691 0 
L 947 0 
C 1190 0 1254 84 1254 309 
L 1254 1735 
C 1254 2315 1645 2560 1958 2560 
C 2266 2560 2336 2424 2336 2082 
L 2336 309 
C 2336 78 2406 0 2643 0 
L 2899 0 
C 3142 0 3206 84 3206 309 
L 3206 1735 
C 3206 2315 3597 2560 3910 2560 
C 4218 2560 4288 2424 4288 2082 
L 4288 309 
C 4288 78 4358 0 4595 0 
L 4851 0 
C 5094 0 5158 84 5158 309 
L 5158 2096 
z
" id="CMSSBX10-6d" transform="scale(0.015625)"/>
      <path d="M 1242 4170 
C 1242 4377 1197 4480 934 4480 
L 698 4480 
C 467 4480 390 4409 390 4170 
L 390 302 
C 390 70 461 -8 698 -8 
L 934 -8 
C 1178 -8 1242 76 1242 302 
L 1242 4170 
z
" id="CMSSBX10-6c" transform="scale(0.015625)"/>
      <path d="M 2534 902 
C 2534 1267 2342 1496 2227 1600 
C 1971 1836 1747 1875 1478 1927 
C 1126 1992 870 2045 870 2299 
C 870 2566 1082 2619 1331 2619 
C 1760 2619 1990 2456 2157 2313 
C 2221 2248 2234 2248 2259 2248 
C 2323 2248 2336 2306 2342 2332 
C 2355 2384 2419 2747 2419 2779 
C 2419 2884 2080 2975 2010 3000 
C 1754 3072 1549 3072 1382 3072 
C 1094 3072 237 3072 237 2145 
C 237 1827 378 1633 550 1477 
C 774 1270 1024 1225 1389 1154 
C 1574 1121 1901 1062 1901 778 
C 1901 473 1651 427 1402 427 
C 1120 427 762 512 461 877 
C 429 909 410 928 371 928 
C 307 928 294 871 288 832 
C 275 743 198 378 198 313 
C 198 198 672 51 678 45 
C 1030 -64 1293 -64 1402 -64 
C 1728 -64 2534 -64 2534 902 
z
" id="CMSSBX10-73" transform="scale(0.015625)"/>
      <path d="M 563 4864 
C 461 4864 390 4864 390 4780 
C 390 4761 390 4748 467 4664 
C 864 4166 1312 3372 1312 1632 
C 1312 -262 781 -1011 429 -1445 
C 390 -1490 390 -1503 390 -1516 
C 390 -1600 461 -1600 563 -1600 
L 678 -1600 
C 794 -1600 806 -1600 922 -1496 
C 1690 -843 2182 262 2182 1632 
C 2182 2413 2022 3765 954 4741 
C 819 4864 806 4864 678 4864 
L 563 4864 
z
" id="CMSSBX10-29" transform="scale(0.015625)"/>
     </defs>
     <use transform="scale(0.996264)" xlink:href="#CMSSBX10-41"/>
     <use transform="translate(70.015609 0)scale(0.996264)" xlink:href="#CMSSBX10-74"/>
     <use transform="translate(110.281513 0)scale(0.996264)" xlink:href="#CMSSBX10-74"/>
     <use transform="translate(150.547416 0)scale(0.996264)" xlink:href="#CMSSBX10-61"/>
     <use transform="translate(202.851611 0)scale(0.996264)" xlink:href="#CMSSBX10-69"/>
     <use transform="translate(228.31183 0)scale(0.996264)" xlink:href="#CMSSBX10-6e"/>
     <use transform="translate(284.213618 0)scale(0.996264)" xlink:href="#CMSSBX10-65"/>
     <use transform="translate(335.134071 0)scale(0.996264)" xlink:href="#CMSSBX10-64"/>
     <use transform="translate(427.565742 0)scale(0.996264)" xlink:href="#CMSSBX10-49"/>
     <use transform="translate(460.497925 0)scale(0.996264)" xlink:href="#CMSSBX10-50"/>
     <use transform="translate(530.513534 0)scale(0.996264)" xlink:href="#CMSSBX10-43"/>
     <use transform="translate(637.059027 0)scale(0.996264)" xlink:href="#CMSSBX10-53"/>
     <use transform="translate(697.942165 0)scale(0.996264)" xlink:href="#CMSSBX10-70"/>
     <use transform="translate(756.88811 0)scale(0.996264)" xlink:href="#CMSSBX10-65"/>
     <use transform="translate(807.808563 0)scale(0.996264)" xlink:href="#CMSSBX10-65"/>
     <use transform="translate(858.729015 0)scale(0.996264)" xlink:href="#CMSSBX10-64"/>
     <use transform="translate(914.630803 0)scale(0.996264)" xlink:href="#CMSSBX10-75"/>
     <use transform="translate(970.532591 0)scale(0.996264)" xlink:href="#CMSSBX10-70"/>
     <use transform="translate(1062.964262 0)scale(0.996264)" xlink:href="#CMSSBX10-28"/>
     <use transform="translate(1105.582459 0)scale(0.996264)" xlink:href="#CMSSBX10-4e"/>
     <use transform="translate(1184.730539 0)scale(0.996264)" xlink:href="#CMSSBX10-6f"/>
     <use transform="translate(1236.481207 0)scale(0.996264)" xlink:href="#CMSSBX10-72"/>
     <use transform="translate(1273.564617 0)scale(0.996264)" xlink:href="#CMSSBX10-6d"/>
     <use transform="translate(1359.907974 0)scale(0.996264)" xlink:href="#CMSSBX10-61"/>
     <use transform="translate(1412.212169 0)scale(0.996264)" xlink:href="#CMSSBX10-6c"/>
     <use transform="translate(1437.672388 0)scale(0.996264)" xlink:href="#CMSSBX10-69"/>
     <use transform="translate(1463.132607 0)scale(0.996264)" xlink:href="#CMSSBX10-73"/>
     <use transform="translate(1505.141972 0)scale(0.996264)" xlink:href="#CMSSBX10-65"/>
     <use transform="translate(1556.062425 0)scale(0.996264)" xlink:href="#CMSSBX10-64"/>
     <use transform="translate(1611.964213 0)scale(0.996264)" xlink:href="#CMSSBX10-29"/>
    </g>
   </g>
   <g id="legend_1">
    <g id="patch_31">
     <path d="M 615.627658 507.64 
L 712.772342 507.64 
Q 714.772342 507.64 714.772342 505.64 
L 714.772342 423.01693 
Q 714.772342 421.01693 712.772342 421.01693 
L 615.627658 421.01693 
Q 613.627658 421.01693 613.627658 423.01693 
L 613.627658 505.64 
Q 613.627658 507.64 615.627658 507.64 
z
" style="fill:#ffffff;opacity:0.8;stroke:#cccccc;stroke-linejoin:miter;"/>
    </g>
    <g id="patch_32">
     <path d="M 617.627658 432.01693 
L 637.627658 432.01693 
L 637.627658 425.01693 
L 617.627658 425.01693 
z
" style="fill:#00004c;"/>
    </g>
    <g id="text_18">
     <!-- direct-mapped -->
     <g transform="translate(645.627658 432.01693)scale(0.1 -0.1)">
      <defs>
       <path d="M 1664 1216 
L 1664 1585 
L 64 1585 
L 64 1216 
L 1664 1216 
z
" id="CMSS17-2d" transform="scale(0.015625)"/>
       <path d="M 966 333 
C 1178 129 1466 -5 1773 -5 
C 2368 -5 2880 603 2880 1412 
C 2880 2159 2496 2816 1946 2816 
C 1626 2816 1242 2702 954 2472 
L 954 2765 
L 480 2765 
L 480 -1216 
L 966 -1216 
L 966 333 
z
M 966 2100 
C 1018 2176 1235 2415 1587 2415 
C 2035 2415 2394 1960 2394 1412 
C 2394 787 1958 384 1530 384 
C 1402 384 1267 415 1139 523 
C 966 674 966 768 966 857 
L 966 2100 
z
" id="CMSS17-70" transform="scale(0.015625)"/>
      </defs>
      <use transform="scale(0.996264)" xlink:href="#CMSS17-64"/>
      <use transform="translate(48.204943 0)scale(0.996264)" xlink:href="#CMSS17-69"/>
      <use transform="translate(70.385666 0)scale(0.996264)" xlink:href="#CMSS17-72"/>
      <use transform="translate(102.295439 0)scale(0.996264)" xlink:href="#CMSS17-65"/>
      <use transform="translate(143.934261 0)scale(0.996264)" xlink:href="#CMSS17-63"/>
      <use transform="translate(185.573083 0)scale(0.996264)" xlink:href="#CMSS17-74"/>
      <use transform="translate(219.40465 0)scale(0.996264)" xlink:href="#CMSS17-2d"/>
      <use transform="translate(250.633762 0)scale(0.996264)" xlink:href="#CMSS17-6d"/>
      <use transform="translate(324.863017 0)scale(0.996264)" xlink:href="#CMSS17-61"/>
      <use transform="translate(369.784937 0)scale(0.996264)" xlink:href="#CMSS17-70"/>
      <use transform="translate(417.98988 0)scale(0.996264)" xlink:href="#CMSS17-70"/>
      <use transform="translate(468.797262 0)scale(0.996264)" xlink:href="#CMSS17-65"/>
      <use transform="translate(510.436084 0)scale(0.996264)" xlink:href="#CMSS17-64"/>
     </g>
    </g>
    <g id="patch_33">
     <path d="M 617.627658 445.954108 
L 637.627658 445.954108 
L 637.627658 438.954108 
L 617.627658 438.954108 
z
" style="fill:#0000db;"/>
    </g>
    <g id="text_19">
     <!-- fully-associative -->
     <g transform="translate(645.627658 445.954108)scale(0.1 -0.1)">
      <defs>
       <path d="M 2675 2752 
L 2176 2752 
C 1632 1294 1446 702 1434 383 
L 1427 383 
C 1408 696 1126 1460 902 2007 
L 602 2752 
L 83 2752 
L 1216 13 
C 1146 -178 1043 -465 1011 -529 
C 870 -885 774 -885 672 -885 
C 646 -885 442 -885 211 -809 
L 250 -1229 
C 410 -1261 570 -1280 685 -1280 
C 845 -1280 1165 -1280 1459 -497 
L 2675 2752 
z
" id="CMSS17-79" transform="scale(0.015625)"/>
       <path d="M 2675 2752 
L 2176 2752 
L 1747 1556 
C 1613 1165 1421 627 1389 352 
L 1382 352 
C 1370 468 1318 634 1286 749 
C 1248 890 1197 1056 1158 1172 
L 595 2752 
L 83 2752 
L 1094 0 
L 1664 0 
L 2675 2752 
z
" id="CMSS17-76" transform="scale(0.015625)"/>
      </defs>
      <use transform="scale(0.996264)" xlink:href="#CMSS17-66"/>
      <use transform="translate(28.626659 0)scale(0.996264)" xlink:href="#CMSS17-75"/>
      <use transform="translate(76.831602 0)scale(0.996264)" xlink:href="#CMSS17-6c"/>
      <use transform="translate(99.012325 0)scale(0.996264)" xlink:href="#CMSS17-6c"/>
      <use transform="translate(121.193048 0)scale(0.996264)" xlink:href="#CMSS17-79"/>
      <use transform="translate(164.19319 0)scale(0.996264)" xlink:href="#CMSS17-2d"/>
      <use transform="translate(195.422302 0)scale(0.996264)" xlink:href="#CMSS17-61"/>
      <use transform="translate(240.344223 0)scale(0.996264)" xlink:href="#CMSS17-73"/>
      <use transform="translate(276.257765 0)scale(0.996264)" xlink:href="#CMSS17-73"/>
      <use transform="translate(312.171307 0)scale(0.996264)" xlink:href="#CMSS17-6f"/>
      <use transform="translate(361.617369 0)scale(0.996264)" xlink:href="#CMSS17-63"/>
      <use transform="translate(403.256191 0)scale(0.996264)" xlink:href="#CMSS17-69"/>
      <use transform="translate(425.436914 0)scale(0.996264)" xlink:href="#CMSS17-61"/>
      <use transform="translate(470.358835 0)scale(0.996264)" xlink:href="#CMSS17-74"/>
      <use transform="translate(504.190402 0)scale(0.996264)" xlink:href="#CMSS17-69"/>
      <use transform="translate(526.371125 0)scale(0.996264)" xlink:href="#CMSS17-76"/>
      <use transform="translate(569.371266 0)scale(0.996264)" xlink:href="#CMSS17-65"/>
     </g>
    </g>
    <g id="patch_34">
     <path d="M 617.627658 459.891287 
L 637.627658 459.891287 
L 637.627658 452.891287 
L 617.627658 452.891287 
z
" style="fill:#9999ff;"/>
    </g>
    <g id="text_20">
     <!-- reduced-size -->
     <g transform="translate(645.627658 459.891287)scale(0.1 -0.1)">
      <defs>
       <path d="M 2400 2502 
L 2400 2750 
L 250 2750 
L 250 2368 
L 1069 2368 
C 1146 2368 1222 2368 1299 2368 
L 1747 2368 
L 166 261 
L 166 0 
L 2419 0 
L 2419 395 
L 1549 395 
C 1472 395 1395 395 1318 395 
L 826 395 
L 2400 2502 
z
" id="CMSS17-7a" transform="scale(0.015625)"/>
      </defs>
      <use transform="scale(0.996264)" xlink:href="#CMSS17-72"/>
      <use transform="translate(31.909773 0)scale(0.996264)" xlink:href="#CMSS17-65"/>
      <use transform="translate(73.548595 0)scale(0.996264)" xlink:href="#CMSS17-64"/>
      <use transform="translate(121.753538 0)scale(0.996264)" xlink:href="#CMSS17-75"/>
      <use transform="translate(169.958481 0)scale(0.996264)" xlink:href="#CMSS17-63"/>
      <use transform="translate(211.597303 0)scale(0.996264)" xlink:href="#CMSS17-65"/>
      <use transform="translate(253.236125 0)scale(0.996264)" xlink:href="#CMSS17-64"/>
      <use transform="translate(301.441068 0)scale(0.996264)" xlink:href="#CMSS17-2d"/>
      <use transform="translate(332.670181 0)scale(0.996264)" xlink:href="#CMSS17-73"/>
      <use transform="translate(368.583723 0)scale(0.996264)" xlink:href="#CMSS17-69"/>
      <use transform="translate(390.764446 0)scale(0.996264)" xlink:href="#CMSS17-7a"/>
      <use transform="translate(431.442318 0)scale(0.996264)" xlink:href="#CMSS17-65"/>
     </g>
    </g>
    <g id="patch_35">
     <path d="M 617.627658 473.828465 
L 637.627658 473.828465 
L 637.627658 466.828465 
L 617.627658 466.828465 
z
" style="fill:#ff9999;"/>
    </g>
    <g id="text_21">
     <!-- doubled-size -->
     <g transform="translate(645.627658 473.828465)scale(0.1 -0.1)">
      <use transform="scale(0.996264)" xlink:href="#CMSS17-64"/>
      <use transform="translate(48.204943 0)scale(0.996264)" xlink:href="#CMSS17-6f"/>
      <use transform="translate(95.048567 0)scale(0.996264)" xlink:href="#CMSS17-75"/>
      <use transform="translate(143.25351 0)scale(0.996264)" xlink:href="#CMSS17-62"/>
      <use transform="translate(191.458453 0)scale(0.996264)" xlink:href="#CMSS17-6c"/>
      <use transform="translate(213.639176 0)scale(0.996264)" xlink:href="#CMSS17-65"/>
      <use transform="translate(255.277998 0)scale(0.996264)" xlink:href="#CMSS17-64"/>
      <use transform="translate(303.482941 0)scale(0.996264)" xlink:href="#CMSS17-2d"/>
      <use transform="translate(334.712054 0)scale(0.996264)" xlink:href="#CMSS17-73"/>
      <use transform="translate(370.625596 0)scale(0.996264)" xlink:href="#CMSS17-69"/>
      <use transform="translate(392.806319 0)scale(0.996264)" xlink:href="#CMSS17-7a"/>
      <use transform="translate(433.484191 0)scale(0.996264)" xlink:href="#CMSS17-65"/>
     </g>
    </g>
    <g id="patch_36">
     <path d="M 617.627658 487.765643 
L 637.627658 487.765643 
L 637.627658 480.765643 
L 617.627658 480.765643 
z
" style="fill:#e60000;"/>
    </g>
    <g id="text_22">
     <!-- reduced-mshr -->
     <g transform="translate(645.627658 487.765643)scale(0.1 -0.1)">
      <defs>
       <path d="M 2618 1891 
C 2618 2292 2522 2820 1798 2820 
C 1395 2820 1133 2623 947 2407 
L 947 4448 
L 474 4448 
L 474 32 
L 960 32 
L 960 1573 
C 960 1973 1114 2432 1549 2432 
C 2112 2432 2131 2056 2131 1839 
L 2131 32 
L 2618 32 
L 2618 1891 
z
" id="CMSS17-68" transform="scale(0.015625)"/>
      </defs>
      <use transform="scale(0.996264)" xlink:href="#CMSS17-72"/>
      <use transform="translate(31.909773 0)scale(0.996264)" xlink:href="#CMSS17-65"/>
      <use transform="translate(73.548595 0)scale(0.996264)" xlink:href="#CMSS17-64"/>
      <use transform="translate(121.753538 0)scale(0.996264)" xlink:href="#CMSS17-75"/>
      <use transform="translate(169.958481 0)scale(0.996264)" xlink:href="#CMSS17-63"/>
      <use transform="translate(211.597303 0)scale(0.996264)" xlink:href="#CMSS17-65"/>
      <use transform="translate(253.236125 0)scale(0.996264)" xlink:href="#CMSS17-64"/>
      <use transform="translate(301.441068 0)scale(0.996264)" xlink:href="#CMSS17-2d"/>
      <use transform="translate(332.670181 0)scale(0.996264)" xlink:href="#CMSS17-6d"/>
      <use transform="translate(406.899435 0)scale(0.996264)" xlink:href="#CMSS17-73"/>
      <use transform="translate(442.812977 0)scale(0.996264)" xlink:href="#CMSS17-68"/>
      <use transform="translate(491.01792 0)scale(0.996264)" xlink:href="#CMSS17-72"/>
     </g>
    </g>
    <g id="patch_37">
     <path d="M 617.627658 501.702822 
L 637.627658 501.702822 
L 637.627658 494.702822 
L 617.627658 494.702822 
z
" style="fill:#800000;"/>
    </g>
    <g id="text_23">
     <!-- doubled-mshr -->
     <g transform="translate(645.627658 501.702822)scale(0.1 -0.1)">
      <use transform="scale(0.996264)" xlink:href="#CMSS17-64"/>
      <use transform="translate(48.204943 0)scale(0.996264)" xlink:href="#CMSS17-6f"/>
      <use transform="translate(95.048567 0)scale(0.996264)" xlink:href="#CMSS17-75"/>
      <use transform="translate(143.25351 0)scale(0.996264)" xlink:href="#CMSS17-62"/>
      <use transform="translate(191.458453 0)scale(0.996264)" xlink:href="#CMSS17-6c"/>
      <use transform="translate(213.639176 0)scale(0.996264)" xlink:href="#CMSS17-65"/>
      <use transform="translate(255.277998 0)scale(0.996264)" xlink:href="#CMSS17-64"/>
      <use transform="translate(303.482941 0)scale(0.996264)" xlink:href="#CMSS17-2d"/>
      <use transform="translate(334.712054 0)scale(0.996264)" xlink:href="#CMSS17-6d"/>
      <use transform="translate(408.941308 0)scale(0.996264)" xlink:href="#CMSS17-73"/>
      <use transform="translate(444.85485 0)scale(0.996264)" xlink:href="#CMSS17-68"/>
      <use transform="translate(493.059793 0)scale(0.996264)" xlink:href="#CMSS17-72"/>
     </g>
    </g>
   </g>
  </g>
 </g>
 <defs>
  <clipPath id="pf5decd67ce">
   <rect height="443.52" width="1004.4" x="162" y="69.12"/>
  </clipPath>
 </defs>
</svg>
