<?xml version="1.0" encoding="utf-8" standalone="no"?>
<!DOCTYPE svg PUBLIC "-//W3C//DTD SVG 1.1//EN"
  "http://www.w3.org/Graphics/SVG/1.1/DTD/svg11.dtd">
<svg height="576pt" version="1.1" viewBox="0 0 1296 576" width="1296pt" xmlns="http://www.w3.org/2000/svg" xmlns:xlink="http://www.w3.org/1999/xlink">
 <metadata>
  <rdf:RDF xmlns:cc="http://creativecommons.org/ns#" xmlns:dc="http://purl.org/dc/elements/1.1/" xmlns:rdf="http://www.w3.org/1999/02/22-rdf-syntax-ns#">
   <cc:Work>
    <dc:type rdf:resource="http://purl.org/dc/dcmitype/StillImage"/>
    <dc:date>2021-10-15T14:10:47.019256</dc:date>
    <dc:format>image/svg+xml</dc:format>
    <dc:creator>
     <cc:Agent>
      <dc:title>Matplotlib v3.4.3, https://matplotlib.org/</dc:title>
     </cc:Agent>
    </dc:creator>
   </cc:Work>
  </rdf:RDF>
 </metadata>
 <defs>
  <style type="text/css">*{stroke-linecap:butt;stroke-linejoin:round;}</style>
 </defs>
 <g id="figure_1">
  <g id="patch_1">
   <path d="M 0 576 
L 1296 576 
L 1296 0 
L 0 0 
z
" style="fill:#ffffff;"/>
  </g>
  <g id="axes_1">
   <g id="patch_2">
    <path d="M 162 512.64 
L 1166.4 512.64 
L 1166.4 69.12 
L 162 69.12 
z
" style="fill:#ffffff;"/>
   </g>
   <g id="patch_3">
    <path clip-path="url(#pe855e7a14c)" d="M 224.775 288.745279 
L 245.7 288.745279 
L 245.7 418.160452 
L 224.775 418.160452 
z
" style="fill:#00004c;"/>
   </g>
   <g id="patch_4">
    <path clip-path="url(#pe855e7a14c)" d="M 475.875 288.745279 
L 496.8 288.745279 
L 496.8 384.934683 
L 475.875 384.934683 
z
" style="fill:#00004c;"/>
   </g>
   <g id="patch_5">
    <path clip-path="url(#pe855e7a14c)" d="M 726.975 288.745279 
L 747.9 288.745279 
L 747.9 366.088684 
L 726.975 366.088684 
z
" style="fill:#00004c;"/>
   </g>
   <g id="patch_6">
    <path clip-path="url(#pe855e7a14c)" d="M 978.075 288.745279 
L 999 288.745279 
L 999 88.958201 
L 978.075 88.958201 
z
" style="fill:#00004c;"/>
   </g>
   <g id="patch_7">
    <path clip-path="url(#pe855e7a14c)" d="M 245.7 288.745279 
L 266.625 288.745279 
L 266.625 221.054045 
L 245.7 221.054045 
z
" style="fill:#0000db;"/>
   </g>
   <g id="patch_8">
    <path clip-path="url(#pe855e7a14c)" d="M 496.8 288.745279 
L 517.725 288.745279 
L 517.725 261.484846 
L 496.8 261.484846 
z
" style="fill:#0000db;"/>
   </g>
   <g id="patch_9">
    <path clip-path="url(#pe855e7a14c)" d="M 747.9 288.745279 
L 768.825 288.745279 
L 768.825 258.632673 
L 747.9 258.632673 
z
" style="fill:#0000db;"/>
   </g>
   <g id="patch_10">
    <path clip-path="url(#pe855e7a14c)" d="M 999 288.745279 
L 1019.925 288.745279 
L 1019.925 83.26263 
L 999 83.26263 
z
" style="fill:#0000db;"/>
   </g>
   <g id="patch_11">
    <path clip-path="url(#pe855e7a14c)" d="M 266.625 288.745279 
L 287.55 288.745279 
L 287.55 417.677238 
L 266.625 417.677238 
z
" style="fill:#9999ff;"/>
   </g>
   <g id="patch_12">
    <path clip-path="url(#pe855e7a14c)" d="M 517.725 288.745279 
L 538.65 288.745279 
L 538.65 142.747089 
L 517.725 142.747089 
z
" style="fill:#9999ff;"/>
   </g>
   <g id="patch_13">
    <path clip-path="url(#pe855e7a14c)" d="M 768.825 288.745279 
L 789.75 288.745279 
L 789.75 142.769527 
L 768.825 142.769527 
z
" style="fill:#9999ff;"/>
   </g>
   <g id="patch_14">
    <path clip-path="url(#pe855e7a14c)" d="M 1019.925 288.745279 
L 1040.85 288.745279 
L 1040.85 72.724922 
L 1019.925 72.724922 
z
" style="fill:#9999ff;"/>
   </g>
   <g id="patch_15">
    <path clip-path="url(#pe855e7a14c)" d="M 287.55 288.745279 
L 308.475 288.745279 
L 308.475 509.463217 
L 287.55 509.463217 
z
" style="fill:#ff9999;"/>
   </g>
   <g id="patch_16">
    <path clip-path="url(#pe855e7a14c)" d="M 538.65 288.745279 
L 559.575 288.745279 
L 559.575 498.769084 
L 538.65 498.769084 
z
" style="fill:#ff9999;"/>
   </g>
   <g id="patch_17">
    <path clip-path="url(#pe855e7a14c)" d="M 789.75 288.745279 
L 810.675 288.745279 
L 810.675 499.029754 
L 789.75 499.029754 
z
" style="fill:#ff9999;"/>
   </g>
   <g id="patch_18">
    <path clip-path="url(#pe855e7a14c)" d="M 1040.85 288.745279 
L 1061.775 288.745279 
L 1061.775 182.202207 
L 1040.85 182.202207 
z
" style="fill:#ff9999;"/>
   </g>
   <g id="patch_19">
    <path clip-path="url(#pe855e7a14c)" d="M 308.475 288.745279 
L 329.4 288.745279 
L 329.4 288.745279 
L 308.475 288.745279 
z
" style="fill:#e60000;"/>
   </g>
   <g id="patch_20">
    <path clip-path="url(#pe855e7a14c)" d="M 559.575 288.745279 
L 580.5 288.745279 
L 580.5 289.696892 
L 559.575 289.696892 
z
" style="fill:#e60000;"/>
   </g>
   <g id="patch_21">
    <path clip-path="url(#pe855e7a14c)" d="M 810.675 288.745279 
L 831.6 288.745279 
L 831.6 277.603697 
L 810.675 277.603697 
z
" style="fill:#e60000;"/>
   </g>
   <g id="patch_22">
    <path clip-path="url(#pe855e7a14c)" d="M 1061.775 288.745279 
L 1082.7 288.745279 
L 1082.7 287.271712 
L 1061.775 287.271712 
z
" style="fill:#e60000;"/>
   </g>
   <g id="patch_23">
    <path clip-path="url(#pe855e7a14c)" d="M 329.4 288.745279 
L 350.325 288.745279 
L 350.325 288.300947 
L 329.4 288.300947 
z
" style="fill:#800000;"/>
   </g>
   <g id="patch_24">
    <path clip-path="url(#pe855e7a14c)" d="M 580.5 288.745279 
L 601.425 288.745279 
L 601.425 295.447589 
L 580.5 295.447589 
z
" style="fill:#800000;"/>
   </g>
   <g id="patch_25">
    <path clip-path="url(#pe855e7a14c)" d="M 831.6 288.745279 
L 852.525 288.745279 
L 852.525 289.384752 
L 831.6 289.384752 
z
" style="fill:#800000;"/>
   </g>
   <g id="patch_26">
    <path clip-path="url(#pe855e7a14c)" d="M 1082.7 288.745279 
L 1103.625 288.745279 
L 1103.625 287.46468 
L 1082.7 287.46468 
z
" style="fill:#800000;"/>
   </g>
   <g id="matplotlib.axis_1">
    <g id="xtick_1">
     <g id="line2d_1">
      <defs>
       <path d="M 0 0 
L 0 3.5 
" id="mb6cff795b6" style="stroke:#000000;stroke-width:0.8;"/>
      </defs>
      <g>
       <use style="stroke:#000000;stroke-width:0.8;" x="287.55" xlink:href="#mb6cff795b6" y="512.64"/>
      </g>
     </g>
     <g id="text_1">
      <!-- bfs -->
      <g transform="translate(278.24144 531.035293)rotate(-1)scale(0.16 -0.16)">
       <defs>
        <path d="M 954 4416 
L 480 4416 
L 480 -13 
L 966 -13 
L 966 274 
C 1210 38 1504 -64 1766 -64 
C 2381 -64 2880 549 2880 1352 
C 2880 2086 2496 2756 1926 2756 
C 1523 2756 1165 2591 954 2419 
L 954 4416 
z
M 966 2046 
C 1107 2222 1306 2368 1587 2368 
C 1965 2368 2394 2097 2394 1352 
C 2394 558 1882 325 1530 325 
C 1402 325 1267 356 1139 464 
C 966 615 966 709 966 797 
L 966 2046 
z
" id="CMSS17-62" transform="scale(0.015625)"/>
        <path d="M 1075 2368 
L 1722 2368 
L 1722 2737 
L 1062 2737 
L 1062 3559 
C 1062 4014 1408 4092 1606 4092 
C 1670 4092 1850 4092 2080 4009 
L 2080 4429 
C 1933 4461 1754 4480 1613 4480 
C 1018 4480 602 3993 602 3359 
L 602 2737 
L 160 2737 
L 160 2368 
L 602 2368 
L 602 0 
L 1075 0 
L 1075 2368 
z
" id="CMSS17-66" transform="scale(0.015625)"/>
        <path d="M 2061 2627 
C 1683 2807 1389 2807 1197 2807 
C 742 2807 198 2648 198 2003 
C 198 1359 902 1218 1094 1179 
C 1389 1122 1715 1058 1715 740 
C 1715 337 1254 337 1171 337 
C 915 337 563 407 243 638 
L 166 210 
C 531 0 883 -64 1178 -64 
C 1965 -64 2163 416 2163 781 
C 2163 1094 1984 1305 1862 1401 
C 1651 1568 1574 1587 1050 1696 
C 960 1709 646 1779 646 2066 
C 646 2432 1050 2432 1139 2432 
C 1555 2432 1811 2303 1984 2208 
L 2061 2627 
z
" id="CMSS17-73" transform="scale(0.015625)"/>
       </defs>
       <use transform="scale(0.996264)" xlink:href="#CMSS17-62"/>
       <use transform="translate(48.204943 0)scale(0.996264)" xlink:href="#CMSS17-66"/>
       <use transform="translate(76.831602 0)scale(0.996264)" xlink:href="#CMSS17-73"/>
      </g>
     </g>
    </g>
    <g id="xtick_2">
     <g id="line2d_2">
      <g>
       <use style="stroke:#000000;stroke-width:0.8;" x="538.65" xlink:href="#mb6cff795b6" y="512.64"/>
      </g>
     </g>
     <g id="text_2">
      <!-- matrix\_multi -->
      <g transform="translate(498.469141 532.113049)rotate(-1)scale(0.16 -0.16)">
       <defs>
        <path d="M 4288 1877 
C 4288 2308 4179 2816 3462 2816 
C 2982 2816 2694 2516 2566 2331 
C 2451 2670 2182 2816 1798 2816 
C 1363 2816 1088 2568 941 2389 
L 941 2758 
L 474 2758 
L 474 0 
L 960 0 
L 960 1559 
C 960 1939 1101 2428 1555 2428 
C 2138 2428 2138 2016 2138 1829 
L 2138 0 
L 2624 0 
L 2624 1559 
C 2624 1939 2765 2428 3219 2428 
C 3802 2428 3802 2016 3802 1829 
L 3802 0 
L 4288 0 
L 4288 1877 
z
" id="CMSS17-6d" transform="scale(0.015625)"/>
        <path d="M 2406 1791 
C 2406 2392 1978 2808 1402 2808 
C 1120 2808 813 2757 461 2553 
L 499 2135 
C 659 2248 934 2432 1395 2432 
C 1722 2432 1920 2180 1920 1782 
L 1920 1536 
C 896 1536 256 1238 256 726 
C 256 461 416 -64 947 -64 
C 1043 -64 1562 -64 1933 217 
L 1933 -19 
L 2406 -19 
L 2406 1791 
z
M 1920 816 
C 1920 701 1920 548 1728 434 
C 1562 325 1350 325 1261 325 
C 941 325 723 511 723 744 
C 723 1211 1722 1211 1920 1211 
L 1920 816 
z
" id="CMSS17-61" transform="scale(0.015625)"/>
        <path d="M 1069 2368 
L 1901 2368 
L 1901 2737 
L 1069 2737 
L 1069 3520 
L 614 3520 
L 614 2737 
L 109 2737 
L 109 2368 
L 602 2368 
L 602 749 
C 602 384 685 -64 1107 -64 
C 1427 -64 1722 25 2003 172 
L 1901 548 
C 1747 414 1562 337 1363 337 
C 1082 337 1069 696 1069 856 
L 1069 2368 
z
" id="CMSS17-74" transform="scale(0.015625)"/>
        <path d="M 954 1363 
C 954 1965 1395 2368 1958 2368 
L 1958 2789 
C 1549 2789 1165 2585 934 2253 
L 934 2758 
L 480 2758 
L 480 0 
L 954 0 
L 954 1363 
z
" id="CMSS17-72" transform="scale(0.015625)"/>
        <path d="M 979 4183 
L 442 4183 
L 442 3648 
L 979 3648 
L 979 4183 
z
M 947 2739 
L 474 2739 
L 474 0 
L 947 0 
L 947 2739 
z
" id="CMSS17-69" transform="scale(0.015625)"/>
        <path d="M 1587 1414 
L 2656 2739 
L 2099 2739 
L 1363 1777 
L 602 2739 
L 32 2739 
L 1139 1414 
L 0 0 
L 563 0 
L 1363 1121 
L 2195 0 
L 2758 0 
L 1587 1414 
z
" id="CMSS17-78" transform="scale(0.015625)"/>
        <path d="M 2618 2739 
L 2131 2739 
L 2131 972 
C 2131 498 1786 306 1421 306 
C 998 306 960 447 960 709 
L 960 2739 
L 474 2739 
L 474 678 
C 474 179 646 -64 1088 -64 
C 1306 -64 1798 -13 2144 306 
L 2144 0 
L 2618 0 
L 2618 2739 
z
" id="CMSS17-75" transform="scale(0.015625)"/>
        <path d="M 947 4416 
L 474 4416 
L 474 0 
L 947 0 
L 947 4416 
z
" id="CMSS17-6c" transform="scale(0.015625)"/>
       </defs>
       <use transform="scale(0.996264)" xlink:href="#CMSS17-6d"/>
       <use transform="translate(74.229254 0)scale(0.996264)" xlink:href="#CMSS17-61"/>
       <use transform="translate(119.151175 0)scale(0.996264)" xlink:href="#CMSS17-74"/>
       <use transform="translate(152.982742 0)scale(0.996264)" xlink:href="#CMSS17-72"/>
       <use transform="translate(184.892514 0)scale(0.996264)" xlink:href="#CMSS17-69"/>
       <use transform="translate(207.073237 0)scale(0.996264)" xlink:href="#CMSS17-78"/>
       <use transform="translate(283.800874 0)scale(0.996264)" xlink:href="#CMSS17-6d"/>
       <use transform="translate(358.030129 0)scale(0.996264)" xlink:href="#CMSS17-75"/>
       <use transform="translate(406.235072 0)scale(0.996264)" xlink:href="#CMSS17-6c"/>
       <use transform="translate(428.415795 0)scale(0.996264)" xlink:href="#CMSS17-74"/>
       <use transform="translate(462.247362 0)scale(0.996264)" xlink:href="#CMSS17-69"/>
       <path d="M 255.69439 0 
L 283.800874 0 
L 283.800874 0.3985 
L 255.69439 0.3985 
L 255.69439 0 
z
"/>
      </g>
     </g>
    </g>
    <g id="xtick_3">
     <g id="line2d_3">
      <g>
       <use style="stroke:#000000;stroke-width:0.8;" x="789.75" xlink:href="#mb6cff795b6" y="512.64"/>
      </g>
     </g>
     <g id="text_3">
      <!-- matrix\_multi\_2 -->
      <g transform="translate(742.858736 532.34731)rotate(-1)scale(0.16 -0.16)">
       <defs>
        <path d="M 1651 1357 
C 1830 1541 2099 1764 2285 1987 
C 2464 2204 2701 2511 2701 2957 
C 2701 3657 2227 4288 1421 4288 
C 787 4288 422 3893 250 3274 
L 499 2929 
C 640 3510 838 3880 1338 3880 
C 1888 3880 2195 3433 2195 2942 
C 2195 2355 1747 1901 1408 1563 
C 1030 1187 659 804 301 408 
L 301 0 
L 2701 0 
L 2701 433 
L 1613 433 
C 1536 433 1459 433 1382 433 
L 742 433 
L 742 439 
L 1651 1357 
z
" id="CMSS17-32" transform="scale(0.015625)"/>
       </defs>
       <use transform="scale(0.996264)" xlink:href="#CMSS17-6d"/>
       <use transform="translate(74.229254 0)scale(0.996264)" xlink:href="#CMSS17-61"/>
       <use transform="translate(119.151175 0)scale(0.996264)" xlink:href="#CMSS17-74"/>
       <use transform="translate(152.982742 0)scale(0.996264)" xlink:href="#CMSS17-72"/>
       <use transform="translate(184.892514 0)scale(0.996264)" xlink:href="#CMSS17-69"/>
       <use transform="translate(207.073237 0)scale(0.996264)" xlink:href="#CMSS17-78"/>
       <use transform="translate(283.800874 0)scale(0.996264)" xlink:href="#CMSS17-6d"/>
       <use transform="translate(358.030129 0)scale(0.996264)" xlink:href="#CMSS17-75"/>
       <use transform="translate(406.235072 0)scale(0.996264)" xlink:href="#CMSS17-6c"/>
       <use transform="translate(428.415795 0)scale(0.996264)" xlink:href="#CMSS17-74"/>
       <use transform="translate(462.247362 0)scale(0.996264)" xlink:href="#CMSS17-69"/>
       <use transform="translate(518.15558 0)scale(0.996264)" xlink:href="#CMSS17-32"/>
       <path d="M 255.69439 0 
L 283.800874 0 
L 283.800874 0.3985 
L 255.69439 0.3985 
L 255.69439 0 
z
"/>
       <path d="M 490.049096 0 
L 518.15558 0 
L 518.15558 0.3985 
L 490.049096 0.3985 
L 490.049096 0 
z
"/>
      </g>
     </g>
    </g>
    <g id="xtick_4">
     <g id="line2d_4">
      <g>
       <use style="stroke:#000000;stroke-width:0.8;" x="1040.85" xlink:href="#mb6cff795b6" y="512.64"/>
      </g>
     </g>
     <g id="text_4">
      <!-- quicksort -->
      <g transform="translate(1011.679369 531.728681)rotate(-1)scale(0.16 -0.16)">
       <defs>
        <path d="M 2611 2816 
L 2138 2816 
L 2138 2428 
C 2112 2460 1818 2816 1318 2816 
C 736 2816 211 2228 211 1399 
C 211 633 653 -5 1229 -5 
C 1498 -5 1837 91 2125 365 
L 2125 -1216 
L 2611 -1216 
L 2611 2816 
z
M 2138 914 
C 2138 832 2138 718 1939 554 
C 1888 510 1747 384 1504 384 
C 1050 384 698 850 698 1399 
C 698 2011 1126 2415 1562 2415 
C 1926 2415 2138 2061 2138 1797 
L 2138 914 
z
" id="CMSS17-71" transform="scale(0.015625)"/>
        <path d="M 2464 2541 
C 2464 2585 2170 2714 2093 2739 
C 1882 2816 1613 2816 1542 2816 
C 710 2816 211 2093 211 1363 
C 211 595 768 -64 1517 -64 
C 1946 -64 2253 76 2502 242 
L 2464 664 
C 2189 453 1869 337 1523 337 
C 1024 337 698 774 698 1369 
C 698 1831 909 2414 1549 2414 
C 1901 2414 2099 2343 2394 2145 
L 2464 2541 
z
" id="CMSS17-63" transform="scale(0.015625)"/>
        <path d="M 1696 1688 
L 2688 2739 
L 2074 2739 
L 954 1554 
L 954 4416 
L 480 4416 
L 480 0 
L 947 0 
L 947 892 
L 1376 1344 
L 2278 0 
L 2822 0 
L 1696 1688 
z
" id="CMSS17-6b" transform="scale(0.015625)"/>
        <path d="M 2829 1356 
C 2829 2176 2221 2816 1504 2816 
C 768 2816 173 2157 173 1356 
C 173 544 787 -64 1498 -64 
C 2227 -64 2829 563 2829 1356 
z
M 1504 337 
C 1050 337 659 709 659 1408 
C 659 2151 1114 2427 1498 2427 
C 1914 2427 2342 2126 2342 1408 
C 2342 683 1926 337 1504 337 
z
" id="CMSS17-6f" transform="scale(0.015625)"/>
       </defs>
       <use transform="scale(0.996264)" xlink:href="#CMSS17-71"/>
       <use transform="translate(48.204943 0)scale(0.996264)" xlink:href="#CMSS17-75"/>
       <use transform="translate(96.409886 0)scale(0.996264)" xlink:href="#CMSS17-69"/>
       <use transform="translate(118.590609 0)scale(0.996264)" xlink:href="#CMSS17-63"/>
       <use transform="translate(160.229431 0)scale(0.996264)" xlink:href="#CMSS17-6b"/>
       <use transform="translate(205.831921 0)scale(0.996264)" xlink:href="#CMSS17-73"/>
       <use transform="translate(241.745463 0)scale(0.996264)" xlink:href="#CMSS17-6f"/>
       <use transform="translate(285.986632 0)scale(0.996264)" xlink:href="#CMSS17-72"/>
       <use transform="translate(317.896405 0)scale(0.996264)" xlink:href="#CMSS17-74"/>
      </g>
     </g>
    </g>
    <g id="text_5">
     <!-- Programs -->
     <g transform="translate(626.969307 553.283311)scale(0.2 -0.2)">
      <defs>
       <path d="M 2106 1856 
C 2874 1856 3501 2453 3501 3158 
C 3501 3850 2899 4453 2067 4453 
L 570 4453 
L 570 0 
L 1107 0 
L 1107 1856 
L 2106 1856 
z
M 1926 4096 
C 2669 4096 2995 3627 2995 3157 
C 2995 2720 2694 2226 1926 2226 
L 1094 2226 
L 1094 4096 
L 1926 4096 
z
" id="CMSS17-50" transform="scale(0.015625)"/>
       <path d="M 2848 2808 
C 2483 2808 2170 2738 1914 2617 
C 1702 2777 1485 2808 1338 2808 
C 781 2808 358 2349 358 1814 
C 358 1468 550 1207 563 1195 
C 448 1035 384 863 384 672 
C 384 448 474 289 544 200 
C 211 -3 166 -314 166 -435 
C 166 -898 749 -1280 1498 -1280 
C 2253 -1280 2835 -898 2835 -428 
C 2835 448 1856 448 1587 448 
L 1069 448 
C 973 448 717 448 717 791 
C 717 921 774 1004 781 1010 
C 877 940 1075 832 1338 832 
C 1869 832 2310 1278 2310 1827 
C 2310 2132 2170 2355 2112 2432 
L 2131 2432 
C 2150 2432 2419 2432 2515 2432 
C 2720 2432 2739 2429 2918 2419 
L 2848 2808 
z
M 1338 1182 
C 1120 1182 813 1315 813 1823 
C 813 2375 1165 2464 1331 2464 
C 1549 2464 1856 2331 1856 1823 
C 1856 1271 1504 1182 1338 1182 
z
M 1581 -10 
C 1734 -10 2381 -10 2381 -442 
C 2381 -714 1984 -929 1504 -929 
C 1018 -929 621 -720 621 -435 
C 621 -403 621 -10 1062 -10 
L 1581 -10 
z
" id="CMSS17-67" transform="scale(0.015625)"/>
      </defs>
      <use transform="scale(0.996264)" xlink:href="#CMSS17-50"/>
      <use transform="translate(59.735586 0)scale(0.996264)" xlink:href="#CMSS17-72"/>
      <use transform="translate(91.645359 0)scale(0.996264)" xlink:href="#CMSS17-6f"/>
      <use transform="translate(138.488982 0)scale(0.996264)" xlink:href="#CMSS17-67"/>
      <use transform="translate(185.332606 0)scale(0.996264)" xlink:href="#CMSS17-72"/>
      <use transform="translate(217.242378 0)scale(0.996264)" xlink:href="#CMSS17-61"/>
      <use transform="translate(262.164299 0)scale(0.996264)" xlink:href="#CMSS17-6d"/>
      <use transform="translate(336.393553 0)scale(0.996264)" xlink:href="#CMSS17-73"/>
     </g>
    </g>
   </g>
   <g id="matplotlib.axis_2">
    <g id="ytick_1">
     <g id="line2d_5">
      <defs>
       <path d="M 0 0 
L -3.5 0 
" id="mb80fec7062" style="stroke:#000000;stroke-width:0.8;"/>
      </defs>
      <g>
       <use style="stroke:#000000;stroke-width:0.8;" x="162" xlink:href="#mb80fec7062" y="436.434122"/>
      </g>
     </g>
     <g id="text_6">
      <!-- $\mathdefault{-10^{1}}$ -->
      <g transform="translate(121.414961 441.968916)scale(0.16 -0.16)">
       <defs>
        <path d="M 4218 1472 
C 4326 1472 4442 1472 4442 1600 
C 4442 1728 4326 1728 4218 1728 
L 755 1728 
C 646 1728 531 1728 531 1600 
C 531 1472 646 1472 755 1472 
L 4218 1472 
z
" id="CMSY10-0" transform="scale(0.015625)"/>
        <path d="M 1702 4058 
C 1702 4192 1696 4192 1606 4192 
C 1357 3916 979 3827 621 3827 
C 602 3827 570 3827 563 3808 
C 557 3795 557 3782 557 3648 
C 755 3648 1088 3686 1344 3839 
L 1344 461 
C 1344 236 1331 160 781 160 
L 589 160 
L 589 0 
C 896 0 1216 0 1523 0 
C 1830 0 2150 0 2458 0 
L 2458 160 
L 2266 160 
C 1715 160 1702 230 1702 458 
L 1702 4058 
z
" id="CMR17-31" transform="scale(0.015625)"/>
        <path d="M 2688 2025 
C 2688 2416 2682 3080 2413 3591 
C 2176 4039 1798 4198 1466 4198 
C 1158 4198 768 4058 525 3597 
C 269 3118 243 2524 243 2025 
C 243 1661 250 1106 448 619 
C 723 -39 1216 -128 1466 -128 
C 1760 -128 2208 -7 2470 600 
C 2662 1042 2688 1559 2688 2025 
z
M 1466 -26 
C 1056 -26 813 325 723 812 
C 653 1188 653 1738 653 2096 
C 653 2588 653 2997 736 3387 
C 858 3929 1216 4096 1466 4096 
C 1728 4096 2067 3923 2189 3400 
C 2272 3036 2278 2607 2278 2096 
C 2278 1680 2278 1169 2202 792 
C 2067 95 1690 -26 1466 -26 
z
" id="CMR17-30" transform="scale(0.015625)"/>
       </defs>
       <use transform="scale(0.996264)" xlink:href="#CMSY10-0"/>
       <use transform="translate(77.487468 0)scale(0.996264)" xlink:href="#CMR17-31"/>
       <use transform="translate(123.177945 0)scale(0.996264)" xlink:href="#CMR17-30"/>
       <use transform="translate(168.868422 36.153639)scale(0.697382)" xlink:href="#CMR17-31"/>
      </g>
     </g>
    </g>
    <g id="ytick_2">
     <g id="line2d_6">
      <g>
       <use style="stroke:#000000;stroke-width:0.8;" x="162" xlink:href="#mb80fec7062" y="334.074384"/>
      </g>
     </g>
     <g id="text_7">
      <!-- $\mathdefault{-10^{0}}$ -->
      <g transform="translate(121.414961 339.609179)scale(0.16 -0.16)">
       <use transform="scale(0.996264)" xlink:href="#CMSY10-0"/>
       <use transform="translate(77.487468 0)scale(0.996264)" xlink:href="#CMR17-31"/>
       <use transform="translate(123.177945 0)scale(0.996264)" xlink:href="#CMR17-30"/>
       <use transform="translate(168.868422 36.153639)scale(0.697382)" xlink:href="#CMR17-30"/>
      </g>
     </g>
    </g>
    <g id="ytick_3">
     <g id="line2d_7">
      <g>
       <use style="stroke:#000000;stroke-width:0.8;" x="162" xlink:href="#mb80fec7062" y="288.745279"/>
      </g>
     </g>
     <g id="text_8">
      <!-- $\mathdefault{0}$ -->
      <g transform="translate(147.196013 294.280073)scale(0.16 -0.16)">
       <use transform="scale(0.996264)" xlink:href="#CMR17-30"/>
      </g>
     </g>
    </g>
    <g id="ytick_4">
     <g id="line2d_8">
      <g>
       <use style="stroke:#000000;stroke-width:0.8;" x="162" xlink:href="#mb80fec7062" y="243.416174"/>
      </g>
     </g>
     <g id="text_9">
      <!-- $\mathdefault{10^{0}}$ -->
      <g transform="translate(133.812957 248.950968)scale(0.16 -0.16)">
       <use transform="scale(0.996264)" xlink:href="#CMR17-31"/>
       <use transform="translate(45.690477 0)scale(0.996264)" xlink:href="#CMR17-30"/>
       <use transform="translate(91.380954 36.153639)scale(0.697382)" xlink:href="#CMR17-30"/>
      </g>
     </g>
    </g>
    <g id="ytick_5">
     <g id="line2d_9">
      <g>
       <use style="stroke:#000000;stroke-width:0.8;" x="162" xlink:href="#mb80fec7062" y="141.056436"/>
      </g>
     </g>
     <g id="text_10">
      <!-- $\mathdefault{10^{1}}$ -->
      <g transform="translate(133.812957 146.59123)scale(0.16 -0.16)">
       <use transform="scale(0.996264)" xlink:href="#CMR17-31"/>
       <use transform="translate(45.690477 0)scale(0.996264)" xlink:href="#CMR17-30"/>
       <use transform="translate(91.380954 36.153639)scale(0.697382)" xlink:href="#CMR17-31"/>
      </g>
     </g>
    </g>
    <g id="text_11">
     <!-- MPKI Improvment/Degradation \%  (symlog scale) -->
     <g transform="translate(112.450317 486.113884)rotate(-90)scale(0.2 -0.2)">
      <defs>
       <path d="M 3194 2371 
L 2886 1473 
C 2835 1307 2662 791 2624 587 
L 2618 587 
C 2598 715 2560 849 2458 1174 
C 2400 1365 2336 1562 2272 1741 
L 1325 4416 
L 576 4416 
L 576 0 
L 1075 0 
L 1075 3900 
L 1082 3900 
C 1082 3894 1139 3613 1530 2499 
L 2374 96 
L 2848 96 
L 3610 2231 
C 3661 2378 3821 2843 3891 3066 
C 3955 3257 4115 3728 4154 3913 
L 4160 3913 
L 4160 0 
L 4666 0 
L 4666 4416 
L 3923 4416 
L 3194 2371 
z
" id="CMSS17-4d" transform="scale(0.015625)"/>
       <path d="M 2234 2666 
L 3827 4416 
L 3213 4416 
L 1101 2106 
L 1101 4416 
L 563 4416 
L 563 0 
L 1101 0 
L 1101 1432 
L 1875 2278 
L 3315 0 
L 3910 0 
L 2234 2666 
z
" id="CMSS17-4b" transform="scale(0.015625)"/>
       <path d="M 1094 4416 
L 557 4416 
L 557 0 
L 1094 0 
L 1094 4416 
z
" id="CMSS17-49" transform="scale(0.015625)"/>
       <path d="M 966 333 
C 1178 129 1466 -5 1773 -5 
C 2368 -5 2880 603 2880 1412 
C 2880 2159 2496 2816 1946 2816 
C 1626 2816 1242 2702 954 2472 
L 954 2765 
L 480 2765 
L 480 -1216 
L 966 -1216 
L 966 333 
z
M 966 2100 
C 1018 2176 1235 2415 1587 2415 
C 2035 2415 2394 1960 2394 1412 
C 2394 787 1958 384 1530 384 
C 1402 384 1267 415 1139 523 
C 966 674 966 768 966 857 
L 966 2100 
z
" id="CMSS17-70" transform="scale(0.015625)"/>
       <path d="M 2675 2752 
L 2176 2752 
L 1747 1556 
C 1613 1165 1421 627 1389 352 
L 1382 352 
C 1370 468 1318 634 1286 749 
C 1248 890 1197 1056 1158 1172 
L 595 2752 
L 83 2752 
L 1094 0 
L 1664 0 
L 2675 2752 
z
" id="CMSS17-76" transform="scale(0.015625)"/>
       <path d="M 2502 1377 
C 2502 1590 2490 2003 2285 2345 
C 2061 2713 1696 2816 1421 2816 
C 755 2816 192 2188 192 1375 
C 192 582 774 -64 1510 -64 
C 1798 -64 2150 19 2470 248 
C 2470 274 2458 414 2451 420 
C 2451 433 2432 630 2432 656 
C 2125 407 1773 325 1517 325 
C 1107 325 666 667 646 1377 
L 2502 1377 
z
M 698 1728 
C 781 2084 1062 2421 1421 2421 
C 1517 2421 1965 2421 2080 1728 
L 698 1728 
z
" id="CMSS17-65" transform="scale(0.015625)"/>
       <path d="M 2618 1877 
C 2618 2283 2522 2816 1798 2816 
C 1389 2816 1120 2606 941 2389 
L 941 2758 
L 474 2758 
L 474 0 
L 960 0 
L 960 1559 
C 960 1964 1114 2428 1549 2428 
C 2112 2428 2131 2048 2131 1829 
L 2131 0 
L 2618 0 
L 2618 1877 
z
" id="CMSS17-6e" transform="scale(0.015625)"/>
       <path d="M 2637 4545 
C 2669 4627 2669 4640 2669 4653 
C 2669 4729 2611 4768 2560 4768 
C 2483 4768 2458 4717 2432 4640 
L 365 -1377 
C 333 -1460 333 -1473 333 -1486 
C 333 -1562 390 -1600 442 -1600 
C 518 -1600 544 -1549 570 -1473 
L 2637 4545 
z
" id="CMSS17-2f" transform="scale(0.015625)"/>
       <path d="M 570 4416 
L 570 0 
L 2144 0 
C 3194 0 4000 980 4000 2170 
C 4000 3398 3194 4416 2144 4416 
L 570 4416 
z
M 1094 357 
L 1094 4059 
L 2003 4059 
C 2861 4059 3475 3277 3475 2170 
C 3475 1107 2867 357 2003 357 
L 1094 357 
z
" id="CMSS17-44" transform="scale(0.015625)"/>
       <path d="M 2611 4416 
L 2138 4416 
L 2138 2438 
C 1939 2603 1613 2756 1254 2756 
C 672 2756 211 2131 211 1347 
C 211 562 666 -64 1235 -64 
C 1677 -64 1971 172 2125 306 
L 2125 -13 
L 2611 -13 
L 2611 4416 
z
M 2125 836 
C 2125 747 2125 653 1926 482 
C 1798 375 1645 325 1498 325 
C 1152 325 698 576 698 1340 
C 698 2134 1210 2368 1562 2368 
C 1798 2368 1990 2254 2125 2065 
L 2125 836 
z
" id="CMSS17-64" transform="scale(0.015625)"/>
       <path d="M 3923 4583 
C 3962 4647 3962 4679 3962 4685 
C 3962 4755 3904 4800 3853 4800 
C 3782 4800 3750 4749 3718 4685 
L 1101 -104 
C 1088 -129 1062 -167 1062 -206 
C 1062 -276 1120 -320 1178 -320 
C 1235 -320 1248 -295 1299 -206 
L 3923 4583 
z
M 4678 959 
C 4678 1698 4282 2240 3846 2240 
C 3418 2240 3008 1711 3008 959 
C 3008 208 3418 -320 3846 -320 
C 4288 -320 4678 221 4678 959 
z
M 3846 68 
C 3712 68 3494 189 3494 959 
C 3494 1724 3712 1851 3846 1851 
C 4083 1851 4211 1386 4211 959 
C 4211 533 4083 68 3846 68 
z
M 2003 3519 
C 2003 4258 1606 4800 1171 4800 
C 742 4800 333 4271 333 3519 
C 333 2768 742 2240 1171 2240 
C 1613 2240 2003 2781 2003 3519 
z
M 1171 2628 
C 1037 2628 819 2749 819 3519 
C 819 4284 1037 4411 1171 4411 
C 1408 4411 1536 3946 1536 3519 
C 1536 3093 1408 2628 1171 2628 
z
" id="CMSS17-25" transform="scale(0.015625)"/>
       <path d="M 1613 4768 
C 1267 4417 474 3601 474 1588 
C 474 -433 1267 -1243 1613 -1600 
L 2003 -1600 
C 1216 -784 960 357 960 1581 
C 960 2798 1203 3946 2003 4768 
L 1613 4768 
z
" id="CMSS17-28" transform="scale(0.015625)"/>
       <path d="M 2675 2752 
L 2176 2752 
C 1632 1294 1446 702 1434 383 
L 1427 383 
C 1408 696 1126 1460 902 2007 
L 602 2752 
L 83 2752 
L 1216 13 
C 1146 -178 1043 -465 1011 -529 
C 870 -885 774 -885 672 -885 
C 646 -885 442 -885 211 -809 
L 250 -1229 
C 410 -1261 570 -1280 685 -1280 
C 845 -1280 1165 -1280 1459 -497 
L 2675 2752 
z
" id="CMSS17-79" transform="scale(0.015625)"/>
       <path d="M 723 -1600 
C 1069 -1249 1862 -433 1862 1581 
C 1862 3601 1069 4411 723 4768 
L 333 4768 
C 1120 3952 1376 2811 1376 1588 
C 1376 370 1133 -778 333 -1600 
L 723 -1600 
z
" id="CMSS17-29" transform="scale(0.015625)"/>
      </defs>
      <use transform="scale(0.996264)" xlink:href="#CMSS17-4d"/>
      <use transform="translate(81.67603 0)scale(0.996264)" xlink:href="#CMSS17-50"/>
      <use transform="translate(141.411616 0)scale(0.996264)" xlink:href="#CMSS17-4b"/>
      <use transform="translate(206.23191 0)scale(0.996264)" xlink:href="#CMSS17-49"/>
      <use transform="translate(263.244948 0)scale(0.996264)" xlink:href="#CMSS17-49"/>
      <use transform="translate(289.028874 0)scale(0.996264)" xlink:href="#CMSS17-6d"/>
      <use transform="translate(363.258128 0)scale(0.996264)" xlink:href="#CMSS17-70"/>
      <use transform="translate(408.860617 0)scale(0.996264)" xlink:href="#CMSS17-72"/>
      <use transform="translate(440.77039 0)scale(0.996264)" xlink:href="#CMSS17-6f"/>
      <use transform="translate(487.614013 0)scale(0.996264)" xlink:href="#CMSS17-76"/>
      <use transform="translate(530.614155 0)scale(0.996264)" xlink:href="#CMSS17-6d"/>
      <use transform="translate(604.843409 0)scale(0.996264)" xlink:href="#CMSS17-65"/>
      <use transform="translate(646.482232 0)scale(0.996264)" xlink:href="#CMSS17-6e"/>
      <use transform="translate(694.687175 0)scale(0.996264)" xlink:href="#CMSS17-74"/>
      <use transform="translate(728.518741 0)scale(0.996264)" xlink:href="#CMSS17-2f"/>
      <use transform="translate(775.362365 0)scale(0.996264)" xlink:href="#CMSS17-44"/>
      <use transform="translate(842.905207 0)scale(0.996264)" xlink:href="#CMSS17-65"/>
      <use transform="translate(884.544029 0)scale(0.996264)" xlink:href="#CMSS17-67"/>
      <use transform="translate(931.387652 0)scale(0.996264)" xlink:href="#CMSS17-72"/>
      <use transform="translate(963.297425 0)scale(0.996264)" xlink:href="#CMSS17-61"/>
      <use transform="translate(1008.219345 0)scale(0.996264)" xlink:href="#CMSS17-64"/>
      <use transform="translate(1056.424288 0)scale(0.996264)" xlink:href="#CMSS17-61"/>
      <use transform="translate(1101.346209 0)scale(0.996264)" xlink:href="#CMSS17-74"/>
      <use transform="translate(1135.177776 0)scale(0.996264)" xlink:href="#CMSS17-69"/>
      <use transform="translate(1157.358499 0)scale(0.996264)" xlink:href="#CMSS17-6f"/>
      <use transform="translate(1204.202122 0)scale(0.996264)" xlink:href="#CMSS17-6e"/>
      <use transform="translate(1283.636178 0)scale(0.996264)" xlink:href="#CMSS17-25"/>
      <use transform="translate(1392.938027 0)scale(0.996264)" xlink:href="#CMSS17-28"/>
      <use transform="translate(1429.371941 0)scale(0.996264)" xlink:href="#CMSS17-73"/>
      <use transform="translate(1465.285483 0)scale(0.996264)" xlink:href="#CMSS17-79"/>
      <use transform="translate(1508.285625 0)scale(0.996264)" xlink:href="#CMSS17-6d"/>
      <use transform="translate(1582.51488 0)scale(0.996264)" xlink:href="#CMSS17-6c"/>
      <use transform="translate(1604.695603 0)scale(0.996264)" xlink:href="#CMSS17-6f"/>
      <use transform="translate(1651.539226 0)scale(0.996264)" xlink:href="#CMSS17-67"/>
      <use transform="translate(1729.611962 0)scale(0.996264)" xlink:href="#CMSS17-73"/>
      <use transform="translate(1765.525504 0)scale(0.996264)" xlink:href="#CMSS17-63"/>
      <use transform="translate(1807.164326 0)scale(0.996264)" xlink:href="#CMSS17-61"/>
      <use transform="translate(1852.086247 0)scale(0.996264)" xlink:href="#CMSS17-6c"/>
      <use transform="translate(1874.26697 0)scale(0.996264)" xlink:href="#CMSS17-65"/>
      <use transform="translate(1915.905792 0)scale(0.996264)" xlink:href="#CMSS17-29"/>
     </g>
    </g>
   </g>
   <g id="patch_27">
    <path d="M 162 512.64 
L 162 69.12 
" style="fill:none;stroke:#000000;stroke-linecap:square;stroke-linejoin:miter;stroke-width:0.8;"/>
   </g>
   <g id="patch_28">
    <path d="M 1166.4 512.64 
L 1166.4 69.12 
" style="fill:none;stroke:#000000;stroke-linecap:square;stroke-linejoin:miter;stroke-width:0.8;"/>
   </g>
   <g id="patch_29">
    <path d="M 162 512.64 
L 1166.4 512.64 
" style="fill:none;stroke:#000000;stroke-linecap:square;stroke-linejoin:miter;stroke-width:0.8;"/>
   </g>
   <g id="patch_30">
    <path d="M 162 69.12 
L 1166.4 69.12 
" style="fill:none;stroke:#000000;stroke-linecap:square;stroke-linejoin:miter;stroke-width:0.8;"/>
   </g>
   <g id="text_12">
    <!-- \textbf{MPKI improvement/degradation for }LLC -->
    <g transform="translate(460.451506 63.12)scale(0.22 -0.22)">
     <defs>
      <path d="M 3552 2106 
C 3418 1776 3181 1181 3130 955 
L 3123 955 
C 3066 1187 2803 1828 2669 2171 
L 1850 4215 
C 1741 4480 1536 4480 1421 4480 
L 890 4480 
C 659 4480 582 4409 582 4170 
L 582 302 
C 582 70 653 -8 890 -8 
L 1062 -8 
C 1306 -8 1370 76 1370 302 
L 1370 3646 
L 1376 3646 
C 1446 3355 1734 2637 1888 2256 
L 2630 412 
C 2746 134 2899 134 3117 134 
C 3334 134 3488 134 3603 412 
L 4422 2443 
C 4486 2598 4832 3478 4877 3646 
L 4883 3646 
L 4883 302 
C 4883 95 4928 -8 5190 -8 
L 5363 -8 
C 5606 -8 5670 76 5670 302 
L 5670 4170 
C 5670 4377 5626 4480 5363 4480 
L 4826 4480 
C 4666 4480 4506 4467 4397 4202 
L 3552 2106 
z
" id="CMSSBX10-4d" transform="scale(0.015625)"/>
      <path d="M 1523 1728 
L 2496 1728 
C 3501 1728 4102 2155 4102 3085 
C 4102 4060 3475 4480 2490 4480 
L 890 4480 
C 659 4480 582 4409 582 4170 
L 582 298 
C 582 66 653 -12 890 -12 
L 1216 -12 
C 1459 -12 1523 72 1523 299 
L 1523 1728 
z
M 2291 3924 
C 3130 3924 3213 3537 3213 3085 
C 3213 2652 3142 2239 2285 2239 
L 1504 2239 
L 1504 3924 
L 2291 3924 
z
" id="CMSSBX10-50" transform="scale(0.015625)"/>
      <path d="M 2694 2611 
L 4378 4209 
C 4454 4280 4454 4319 4454 4345 
C 4454 4480 4326 4480 4237 4480 
L 3846 4480 
C 3738 4480 3610 4480 3475 4351 
L 1414 2385 
L 1414 4170 
C 1414 4377 1370 4480 1107 4480 
L 890 4480 
C 659 4480 582 4409 582 4170 
L 582 302 
C 582 70 653 -8 890 -8 
L 1107 -8 
C 1350 -8 1414 76 1414 302 
L 1414 1389 
L 2125 2068 
L 3558 128 
C 3661 -8 3757 -8 3878 -8 
L 4262 -8 
C 4397 -8 4486 -8 4486 180 
L 2694 2611 
z
" id="CMSSBX10-4b" transform="scale(0.015625)"/>
      <path d="M 1530 4170 
C 1530 4377 1485 4480 1222 4480 
L 896 4480 
C 666 4480 589 4409 589 4170 
L 589 302 
C 589 70 659 -8 896 -8 
L 1222 -8 
C 1466 -8 1530 76 1530 302 
L 1530 4170 
z
" id="CMSSBX10-49" transform="scale(0.015625)"/>
      <path d="M 653 4480 
C 448 4480 346 4441 346 4182 
L 346 3885 
C 346 3678 410 3594 646 3594 
L 979 3594 
C 1286 3594 1286 3730 1286 4034 
C 1286 4344 1286 4480 979 4480 
L 653 4480 
z
M 1242 2634 
C 1242 2841 1197 2944 934 2944 
L 698 2944 
C 467 2944 390 2873 390 2634 
L 390 292 
C 390 60 461 -18 698 -18 
L 934 -18 
C 1178 -18 1242 66 1242 292 
L 1242 2634 
z
" id="CMSSBX10-69" transform="scale(0.015625)"/>
      <path d="M 5158 2096 
C 5158 2761 4877 3025 4224 3025 
C 3770 3025 3418 2812 3187 2386 
C 3085 3012 2541 3012 2272 3012 
C 2150 3012 1882 3012 1594 2803 
C 1395 2658 1267 2455 1222 2360 
L 1216 2360 
L 1216 2687 
C 1216 2896 1171 3001 909 3001 
L 691 3001 
C 461 3001 384 2930 384 2690 
L 384 310 
C 384 78 454 0 691 0 
L 947 0 
C 1190 0 1254 84 1254 309 
L 1254 1735 
C 1254 2315 1645 2560 1958 2560 
C 2266 2560 2336 2424 2336 2082 
L 2336 309 
C 2336 78 2406 0 2643 0 
L 2899 0 
C 3142 0 3206 84 3206 309 
L 3206 1735 
C 3206 2315 3597 2560 3910 2560 
C 4218 2560 4288 2424 4288 2082 
L 4288 309 
C 4288 78 4358 0 4595 0 
L 4851 0 
C 5094 0 5158 84 5158 309 
L 5158 2096 
z
" id="CMSSBX10-6d" transform="scale(0.015625)"/>
      <path d="M 1261 242 
C 1549 -82 1901 -82 1990 -82 
C 3347 -82 3347 1154 3347 1476 
C 3347 1791 3347 3008 2189 3008 
C 1811 3008 1472 2853 1242 2633 
C 1242 2872 1152 2937 934 2937 
L 698 2937 
C 467 2937 390 2866 390 2627 
L 390 -969 
C 390 -1202 461 -1280 698 -1280 
L 954 -1280 
C 1197 -1280 1261 -1195 1261 -966 
L 1261 242 
z
M 1261 2292 
C 1331 2356 1542 2504 1818 2504 
C 2470 2504 2477 1746 2477 1463 
C 2477 1206 2477 384 1754 384 
C 1606 384 1491 435 1414 492 
C 1261 602 1261 634 1261 750 
L 1261 2292 
z
" id="CMSSBX10-70" transform="scale(0.015625)"/>
      <path d="M 1242 1496 
C 1242 2115 1747 2368 2150 2368 
C 2266 2368 2278 2368 2278 2555 
L 2278 2860 
C 2278 2989 2278 3034 2163 3034 
C 1984 3034 1517 2970 1216 2271 
L 1210 2271 
L 1210 2690 
C 1210 2897 1165 3001 902 3001 
L 698 3001 
C 467 3001 390 2930 390 2690 
L 390 310 
C 390 78 461 0 698 0 
L 934 0 
C 1178 0 1242 84 1242 312 
L 1242 1496 
z
" id="CMSSBX10-72" transform="scale(0.015625)"/>
      <path d="M 3315 1459 
C 3315 2517 2803 3072 1760 3072 
C 691 3072 198 2497 198 1459 
C 198 407 749 -64 1754 -64 
C 2758 -64 3315 401 3315 1459 
z
M 1760 440 
C 1069 440 1069 1020 1069 1536 
C 1069 2033 1069 2606 1754 2606 
C 2445 2606 2445 2039 2445 1536 
C 2445 1027 2445 440 1760 440 
z
" id="CMSSBX10-6f" transform="scale(0.015625)"/>
      <path d="M 2995 2671 
C 3027 2762 3027 2775 3027 2794 
C 3027 2976 2867 2976 2771 2976 
L 2637 2976 
C 2368 2976 2298 2879 2240 2697 
L 1606 734 
L 973 2697 
C 928 2833 883 2976 576 2976 
L 422 2976 
C 326 2976 166 2976 166 2794 
C 166 2775 166 2762 198 2670 
L 960 273 
C 1050 0 1248 0 1363 0 
L 1830 0 
C 1946 0 2144 0 2234 273 
L 2995 2671 
z
" id="CMSSBX10-76" transform="scale(0.015625)"/>
      <path d="M 2758 1385 
C 2906 1385 3066 1385 3066 1678 
C 3066 2514 2682 3072 1728 3072 
C 704 3072 198 2491 198 1510 
C 198 452 806 -64 1811 -64 
C 2054 -64 2419 -32 2842 182 
C 2982 253 3027 272 3027 350 
C 3027 395 3008 582 3002 633 
C 2976 833 2970 839 2912 839 
C 2886 839 2874 839 2803 775 
C 2426 447 2042 402 1837 402 
C 1114 402 1037 974 1018 1385 
L 2758 1385 
z
M 1024 1728 
C 1043 2122 1171 2606 1728 2606 
C 2240 2606 2336 2231 2355 1728 
L 1024 1728 
z
" id="CMSSBX10-65" transform="scale(0.015625)"/>
      <path d="M 3200 2096 
C 3200 2761 2918 3025 2266 3025 
C 1594 3025 1306 2535 1222 2360 
L 1216 2360 
L 1216 2687 
C 1216 2896 1171 3001 909 3001 
L 691 3001 
C 461 3001 384 2930 384 2690 
L 384 310 
C 384 78 454 0 691 0 
L 947 0 
C 1190 0 1254 84 1254 309 
L 1254 1735 
C 1254 2295 1626 2560 1958 2560 
C 2266 2560 2330 2411 2330 2082 
L 2330 309 
C 2330 103 2374 0 2637 0 
L 2893 0 
C 3136 0 3200 84 3200 309 
L 3200 2096 
z
" id="CMSSBX10-6e" transform="scale(0.015625)"/>
      <path d="M 1395 2496 
L 1965 2496 
C 2042 2496 2272 2496 2272 2729 
C 2272 2962 2042 2962 1965 2962 
L 1395 2962 
L 1395 3498 
C 1395 3705 1350 3808 1088 3808 
L 890 3808 
C 659 3808 582 3737 582 3498 
L 582 2962 
L 435 2962 
C 365 2962 128 2962 128 2729 
C 128 2496 358 2496 435 2496 
L 563 2496 
L 563 864 
C 563 213 794 -64 1235 -64 
C 1293 -64 1574 -64 1907 39 
C 2016 72 2387 188 2387 311 
C 2387 330 2374 376 2336 510 
C 2304 639 2291 678 2234 678 
C 2202 678 2195 671 2157 632 
C 2086 582 1914 440 1645 440 
C 1491 440 1395 550 1395 975 
L 1395 2496 
z
" id="CMSSBX10-74" transform="scale(0.015625)"/>
      <path d="M 3085 4443 
C 3123 4540 3123 4547 3123 4592 
C 3123 4734 3008 4864 2854 4864 
C 2669 4864 2605 4702 2586 4644 
L 429 -1179 
C 390 -1276 390 -1283 390 -1328 
C 390 -1470 506 -1600 659 -1600 
C 845 -1600 909 -1438 928 -1380 
L 3085 4443 
z
" id="CMSSBX10-2f" transform="scale(0.015625)"/>
      <path d="M 3194 4170 
C 3194 4377 3149 4480 2886 4480 
L 2650 4480 
C 2406 4480 2342 4396 2342 4170 
L 2342 2702 
C 2054 2980 1734 3025 1536 3025 
C 237 3025 237 1782 237 1465 
C 237 1167 237 -82 1504 -82 
C 1773 -82 2048 -5 2323 294 
C 2323 57 2413 -8 2630 -8 
L 2886 -8 
C 3130 -8 3194 76 3194 302 
L 3194 4170 
z
M 2323 798 
C 2323 687 2323 629 2138 500 
C 1978 396 1830 384 1754 384 
C 1107 384 1107 980 1107 1465 
C 1107 1951 1107 2560 1824 2560 
C 2010 2560 2182 2495 2323 2359 
L 2323 798 
z
" id="CMSSBX10-64" transform="scale(0.015625)"/>
      <path d="M 1280 577 
C 1050 577 960 577 870 656 
C 845 681 736 779 736 949 
C 736 994 742 1007 749 1046 
C 1050 878 1427 878 1562 878 
C 1830 878 2848 878 2848 1950 
C 2848 2326 2707 2553 2650 2624 
C 2758 2624 2982 2624 3245 2553 
C 3270 2540 3315 2527 3334 2527 
C 3386 2527 3418 2566 3418 2611 
C 3418 2637 3386 2792 3373 2857 
C 3347 3012 3347 3025 3232 3025 
C 3034 3025 2714 2948 2470 2799 
C 2170 2999 1837 3025 1562 3025 
C 1293 3025 275 3025 275 1954 
C 275 1694 346 1370 589 1156 
C 416 915 416 663 416 630 
C 416 507 454 293 589 118 
C 493 79 160 -37 160 -451 
C 160 -652 256 -988 659 -1176 
C 1024 -1344 1453 -1344 1754 -1344 
C 2131 -1344 3354 -1344 3354 -429 
C 3354 577 2451 577 1587 577 
L 1280 577 
z
M 1562 1344 
C 1114 1344 1094 1591 1094 1949 
C 1094 2306 1114 2560 1562 2560 
C 2010 2560 2029 2313 2029 1955 
C 2029 1597 2010 1344 1562 1344 
z
M 1907 -128 
C 2426 -128 2694 -217 2694 -448 
C 2694 -879 1965 -879 1760 -879 
C 1504 -879 819 -879 819 -430 
C 819 -128 1018 -128 1165 -128 
L 1907 -128 
z
" id="CMSSBX10-67" transform="scale(0.015625)"/>
      <path d="M 2970 2050 
C 2970 3072 1997 3072 1677 3072 
C 1376 3072 1056 3046 627 2868 
C 493 2811 461 2792 461 2722 
C 461 2677 499 2300 506 2248 
C 512 2209 544 2177 589 2177 
C 621 2177 640 2196 659 2216 
C 934 2508 1254 2651 1651 2651 
C 1997 2651 2099 2435 2099 2049 
L 2099 1820 
C 1875 1820 198 1820 198 868 
C 198 415 557 -64 1120 -64 
C 1338 -64 1818 1 2118 447 
L 2118 317 
C 2118 110 2163 7 2426 7 
L 2662 7 
C 2906 7 2970 91 2970 317 
L 2970 2050 
z
M 2099 988 
C 2099 402 1491 402 1472 402 
C 1203 402 1030 639 1030 889 
C 1030 1536 1920 1536 2099 1536 
L 2099 988 
z
" id="CMSSBX10-61" transform="scale(0.015625)"/>
      <path d="M 1402 2496 
L 1709 2496 
C 1786 2496 2016 2496 2016 2729 
C 2016 2962 1786 2962 1709 2962 
L 1382 2962 
L 1382 3668 
C 1382 3837 1382 4096 1798 4096 
C 2003 4096 2131 4038 2259 3915 
C 2304 3863 2323 3850 2355 3850 
C 2438 3850 2438 3915 2438 4018 
L 2438 4316 
C 2438 4471 2432 4477 2214 4523 
C 2029 4561 1894 4561 1798 4561 
C 1318 4561 550 4452 550 3480 
L 550 2962 
C 416 2962 192 2962 192 2729 
C 192 2496 410 2496 550 2496 
L 550 310 
C 550 78 621 0 858 0 
L 1094 0 
C 1338 0 1402 84 1402 310 
L 1402 2496 
z
" id="CMSSBX10-66" transform="scale(0.015625)"/>
      <path d="M 1670 414 
C 1594 414 1517 414 1440 414 
L 1101 414 
L 1101 4416 
L 563 4416 
L 563 0 
L 3002 0 
L 3002 414 
L 1670 414 
z
" id="CMSS17-4c" transform="scale(0.015625)"/>
      <path d="M 3501 714 
C 3072 427 2874 344 2355 344 
C 1459 344 934 1303 934 2179 
C 934 3112 1472 4032 2381 4032 
C 2790 4032 3059 3918 3386 3715 
L 3475 4217 
C 3168 4370 2778 4440 2387 4440 
C 1158 4440 397 3316 397 2179 
C 397 927 1299 -64 2323 -64 
C 2874 -64 3066 -19 3539 280 
L 3501 714 
z
" id="CMSS17-43" transform="scale(0.015625)"/>
     </defs>
     <use transform="scale(0.996264)" xlink:href="#CMSSBX10-4d"/>
     <use transform="translate(97.413021 0)scale(0.996264)" xlink:href="#CMSSBX10-50"/>
     <use transform="translate(167.428631 0)scale(0.996264)" xlink:href="#CMSSBX10-4b"/>
     <use transform="translate(243.532554 0)scale(0.996264)" xlink:href="#CMSSBX10-49"/>
     <use transform="translate(312.99462 0)scale(0.996264)" xlink:href="#CMSSBX10-69"/>
     <use transform="translate(338.454839 0)scale(0.996264)" xlink:href="#CMSSBX10-6d"/>
     <use transform="translate(424.798196 0)scale(0.996264)" xlink:href="#CMSSBX10-70"/>
     <use transform="translate(477.655827 0)scale(0.996264)" xlink:href="#CMSSBX10-72"/>
     <use transform="translate(514.739238 0)scale(0.996264)" xlink:href="#CMSSBX10-6f"/>
     <use transform="translate(569.534062 0)scale(0.996264)" xlink:href="#CMSSBX10-76"/>
     <use transform="translate(619.347536 0)scale(0.996264)" xlink:href="#CMSSBX10-65"/>
     <use transform="translate(670.267989 0)scale(0.996264)" xlink:href="#CMSSBX10-6d"/>
     <use transform="translate(756.611346 0)scale(0.996264)" xlink:href="#CMSSBX10-65"/>
     <use transform="translate(807.531799 0)scale(0.996264)" xlink:href="#CMSSBX10-6e"/>
     <use transform="translate(863.433587 0)scale(0.996264)" xlink:href="#CMSSBX10-74"/>
     <use transform="translate(903.699491 0)scale(0.996264)" xlink:href="#CMSSBX10-2f"/>
     <use transform="translate(958.494315 0)scale(0.996264)" xlink:href="#CMSSBX10-64"/>
     <use transform="translate(1014.396103 0)scale(0.996264)" xlink:href="#CMSSBX10-65"/>
     <use transform="translate(1065.316556 0)scale(0.996264)" xlink:href="#CMSSBX10-67"/>
     <use transform="translate(1120.11138 0)scale(0.996264)" xlink:href="#CMSSBX10-72"/>
     <use transform="translate(1157.194791 0)scale(0.996264)" xlink:href="#CMSSBX10-61"/>
     <use transform="translate(1209.498986 0)scale(0.996264)" xlink:href="#CMSSBX10-64"/>
     <use transform="translate(1265.400774 0)scale(0.996264)" xlink:href="#CMSSBX10-61"/>
     <use transform="translate(1317.704969 0)scale(0.996264)" xlink:href="#CMSSBX10-74"/>
     <use transform="translate(1357.970872 0)scale(0.996264)" xlink:href="#CMSSBX10-69"/>
     <use transform="translate(1383.431091 0)scale(0.996264)" xlink:href="#CMSSBX10-6f"/>
     <use transform="translate(1438.225916 0)scale(0.996264)" xlink:href="#CMSSBX10-6e"/>
     <use transform="translate(1530.657587 0)scale(0.996264)" xlink:href="#CMSSBX10-66"/>
     <use transform="translate(1564.143313 0)scale(0.996264)" xlink:href="#CMSSBX10-6f"/>
     <use transform="translate(1615.89398 0)scale(0.996264)" xlink:href="#CMSSBX10-72"/>
     <use transform="translate(1691.029443 0)scale(0.996264)" xlink:href="#CMSS17-4c"/>
     <use transform="translate(1741.716549 0)scale(0.996264)" xlink:href="#CMSS17-4c"/>
     <use transform="translate(1792.403654 0)scale(0.996264)" xlink:href="#CMSS17-43"/>
    </g>
   </g>
   <g id="legend_1">
    <g id="patch_31">
     <path d="M 1062.255316 174.598747 
L 1159.4 174.598747 
Q 1161.4 174.598747 1161.4 172.598747 
L 1161.4 76.12 
Q 1161.4 74.12 1159.4 74.12 
L 1062.255316 74.12 
Q 1060.255316 74.12 1060.255316 76.12 
L 1060.255316 172.598747 
Q 1060.255316 174.598747 1062.255316 174.598747 
z
" style="fill:#ffffff;opacity:0.8;stroke:#cccccc;stroke-linejoin:miter;"/>
    </g>
    <g id="text_13">
     <!-- programs -->
     <g transform="translate(1091.746388 85.038498)scale(0.1 -0.1)">
      <use transform="scale(0.996264)" xlink:href="#CMSS17-70"/>
      <use transform="translate(45.602489 0)scale(0.996264)" xlink:href="#CMSS17-72"/>
      <use transform="translate(77.512262 0)scale(0.996264)" xlink:href="#CMSS17-6f"/>
      <use transform="translate(124.355885 0)scale(0.996264)" xlink:href="#CMSS17-67"/>
      <use transform="translate(171.199509 0)scale(0.996264)" xlink:href="#CMSS17-72"/>
      <use transform="translate(203.109281 0)scale(0.996264)" xlink:href="#CMSS17-61"/>
      <use transform="translate(248.031202 0)scale(0.996264)" xlink:href="#CMSS17-6d"/>
      <use transform="translate(322.260456 0)scale(0.996264)" xlink:href="#CMSS17-73"/>
     </g>
    </g>
    <g id="patch_32">
     <path d="M 1064.255316 98.975677 
L 1084.255316 98.975677 
L 1084.255316 91.975677 
L 1064.255316 91.975677 
z
" style="fill:#00004c;"/>
    </g>
    <g id="text_14">
     <!-- direct-mapped -->
     <g transform="translate(1092.255316 98.975677)scale(0.1 -0.1)">
      <defs>
       <path d="M 1664 1216 
L 1664 1585 
L 64 1585 
L 64 1216 
L 1664 1216 
z
" id="CMSS17-2d" transform="scale(0.015625)"/>
      </defs>
      <use transform="scale(0.996264)" xlink:href="#CMSS17-64"/>
      <use transform="translate(48.204943 0)scale(0.996264)" xlink:href="#CMSS17-69"/>
      <use transform="translate(70.385666 0)scale(0.996264)" xlink:href="#CMSS17-72"/>
      <use transform="translate(102.295439 0)scale(0.996264)" xlink:href="#CMSS17-65"/>
      <use transform="translate(143.934261 0)scale(0.996264)" xlink:href="#CMSS17-63"/>
      <use transform="translate(185.573083 0)scale(0.996264)" xlink:href="#CMSS17-74"/>
      <use transform="translate(219.40465 0)scale(0.996264)" xlink:href="#CMSS17-2d"/>
      <use transform="translate(250.633762 0)scale(0.996264)" xlink:href="#CMSS17-6d"/>
      <use transform="translate(324.863017 0)scale(0.996264)" xlink:href="#CMSS17-61"/>
      <use transform="translate(369.784937 0)scale(0.996264)" xlink:href="#CMSS17-70"/>
      <use transform="translate(417.98988 0)scale(0.996264)" xlink:href="#CMSS17-70"/>
      <use transform="translate(468.797262 0)scale(0.996264)" xlink:href="#CMSS17-65"/>
      <use transform="translate(510.436084 0)scale(0.996264)" xlink:href="#CMSS17-64"/>
     </g>
    </g>
    <g id="patch_33">
     <path d="M 1064.255316 112.912855 
L 1084.255316 112.912855 
L 1084.255316 105.912855 
L 1064.255316 105.912855 
z
" style="fill:#0000db;"/>
    </g>
    <g id="text_15">
     <!-- fully-associative -->
     <g transform="translate(1092.255316 112.912855)scale(0.1 -0.1)">
      <use transform="scale(0.996264)" xlink:href="#CMSS17-66"/>
      <use transform="translate(28.626659 0)scale(0.996264)" xlink:href="#CMSS17-75"/>
      <use transform="translate(76.831602 0)scale(0.996264)" xlink:href="#CMSS17-6c"/>
      <use transform="translate(99.012325 0)scale(0.996264)" xlink:href="#CMSS17-6c"/>
      <use transform="translate(121.193048 0)scale(0.996264)" xlink:href="#CMSS17-79"/>
      <use transform="translate(164.19319 0)scale(0.996264)" xlink:href="#CMSS17-2d"/>
      <use transform="translate(195.422302 0)scale(0.996264)" xlink:href="#CMSS17-61"/>
      <use transform="translate(240.344223 0)scale(0.996264)" xlink:href="#CMSS17-73"/>
      <use transform="translate(276.257765 0)scale(0.996264)" xlink:href="#CMSS17-73"/>
      <use transform="translate(312.171307 0)scale(0.996264)" xlink:href="#CMSS17-6f"/>
      <use transform="translate(361.617369 0)scale(0.996264)" xlink:href="#CMSS17-63"/>
      <use transform="translate(403.256191 0)scale(0.996264)" xlink:href="#CMSS17-69"/>
      <use transform="translate(425.436914 0)scale(0.996264)" xlink:href="#CMSS17-61"/>
      <use transform="translate(470.358835 0)scale(0.996264)" xlink:href="#CMSS17-74"/>
      <use transform="translate(504.190402 0)scale(0.996264)" xlink:href="#CMSS17-69"/>
      <use transform="translate(526.371125 0)scale(0.996264)" xlink:href="#CMSS17-76"/>
      <use transform="translate(569.371266 0)scale(0.996264)" xlink:href="#CMSS17-65"/>
     </g>
    </g>
    <g id="patch_34">
     <path d="M 1064.255316 126.850033 
L 1084.255316 126.850033 
L 1084.255316 119.850033 
L 1064.255316 119.850033 
z
" style="fill:#9999ff;"/>
    </g>
    <g id="text_16">
     <!-- reduced-size -->
     <g transform="translate(1092.255316 126.850033)scale(0.1 -0.1)">
      <defs>
       <path d="M 2400 2502 
L 2400 2750 
L 250 2750 
L 250 2368 
L 1069 2368 
C 1146 2368 1222 2368 1299 2368 
L 1747 2368 
L 166 261 
L 166 0 
L 2419 0 
L 2419 395 
L 1549 395 
C 1472 395 1395 395 1318 395 
L 826 395 
L 2400 2502 
z
" id="CMSS17-7a" transform="scale(0.015625)"/>
      </defs>
      <use transform="scale(0.996264)" xlink:href="#CMSS17-72"/>
      <use transform="translate(31.909773 0)scale(0.996264)" xlink:href="#CMSS17-65"/>
      <use transform="translate(73.548595 0)scale(0.996264)" xlink:href="#CMSS17-64"/>
      <use transform="translate(121.753538 0)scale(0.996264)" xlink:href="#CMSS17-75"/>
      <use transform="translate(169.958481 0)scale(0.996264)" xlink:href="#CMSS17-63"/>
      <use transform="translate(211.597303 0)scale(0.996264)" xlink:href="#CMSS17-65"/>
      <use transform="translate(253.236125 0)scale(0.996264)" xlink:href="#CMSS17-64"/>
      <use transform="translate(301.441068 0)scale(0.996264)" xlink:href="#CMSS17-2d"/>
      <use transform="translate(332.670181 0)scale(0.996264)" xlink:href="#CMSS17-73"/>
      <use transform="translate(368.583723 0)scale(0.996264)" xlink:href="#CMSS17-69"/>
      <use transform="translate(390.764446 0)scale(0.996264)" xlink:href="#CMSS17-7a"/>
      <use transform="translate(431.442318 0)scale(0.996264)" xlink:href="#CMSS17-65"/>
     </g>
    </g>
    <g id="patch_35">
     <path d="M 1064.255316 140.787212 
L 1084.255316 140.787212 
L 1084.255316 133.787212 
L 1064.255316 133.787212 
z
" style="fill:#ff9999;"/>
    </g>
    <g id="text_17">
     <!-- doubled-size -->
     <g transform="translate(1092.255316 140.787212)scale(0.1 -0.1)">
      <use transform="scale(0.996264)" xlink:href="#CMSS17-64"/>
      <use transform="translate(48.204943 0)scale(0.996264)" xlink:href="#CMSS17-6f"/>
      <use transform="translate(95.048567 0)scale(0.996264)" xlink:href="#CMSS17-75"/>
      <use transform="translate(143.25351 0)scale(0.996264)" xlink:href="#CMSS17-62"/>
      <use transform="translate(191.458453 0)scale(0.996264)" xlink:href="#CMSS17-6c"/>
      <use transform="translate(213.639176 0)scale(0.996264)" xlink:href="#CMSS17-65"/>
      <use transform="translate(255.277998 0)scale(0.996264)" xlink:href="#CMSS17-64"/>
      <use transform="translate(303.482941 0)scale(0.996264)" xlink:href="#CMSS17-2d"/>
      <use transform="translate(334.712054 0)scale(0.996264)" xlink:href="#CMSS17-73"/>
      <use transform="translate(370.625596 0)scale(0.996264)" xlink:href="#CMSS17-69"/>
      <use transform="translate(392.806319 0)scale(0.996264)" xlink:href="#CMSS17-7a"/>
      <use transform="translate(433.484191 0)scale(0.996264)" xlink:href="#CMSS17-65"/>
     </g>
    </g>
    <g id="patch_36">
     <path d="M 1064.255316 154.72439 
L 1084.255316 154.72439 
L 1084.255316 147.72439 
L 1064.255316 147.72439 
z
" style="fill:#e60000;"/>
    </g>
    <g id="text_18">
     <!-- reduced-mshr -->
     <g transform="translate(1092.255316 154.72439)scale(0.1 -0.1)">
      <defs>
       <path d="M 2618 1891 
C 2618 2292 2522 2820 1798 2820 
C 1395 2820 1133 2623 947 2407 
L 947 4448 
L 474 4448 
L 474 32 
L 960 32 
L 960 1573 
C 960 1973 1114 2432 1549 2432 
C 2112 2432 2131 2056 2131 1839 
L 2131 32 
L 2618 32 
L 2618 1891 
z
" id="CMSS17-68" transform="scale(0.015625)"/>
      </defs>
      <use transform="scale(0.996264)" xlink:href="#CMSS17-72"/>
      <use transform="translate(31.909773 0)scale(0.996264)" xlink:href="#CMSS17-65"/>
      <use transform="translate(73.548595 0)scale(0.996264)" xlink:href="#CMSS17-64"/>
      <use transform="translate(121.753538 0)scale(0.996264)" xlink:href="#CMSS17-75"/>
      <use transform="translate(169.958481 0)scale(0.996264)" xlink:href="#CMSS17-63"/>
      <use transform="translate(211.597303 0)scale(0.996264)" xlink:href="#CMSS17-65"/>
      <use transform="translate(253.236125 0)scale(0.996264)" xlink:href="#CMSS17-64"/>
      <use transform="translate(301.441068 0)scale(0.996264)" xlink:href="#CMSS17-2d"/>
      <use transform="translate(332.670181 0)scale(0.996264)" xlink:href="#CMSS17-6d"/>
      <use transform="translate(406.899435 0)scale(0.996264)" xlink:href="#CMSS17-73"/>
      <use transform="translate(442.812977 0)scale(0.996264)" xlink:href="#CMSS17-68"/>
      <use transform="translate(491.01792 0)scale(0.996264)" xlink:href="#CMSS17-72"/>
     </g>
    </g>
    <g id="patch_37">
     <path d="M 1064.255316 168.661568 
L 1084.255316 168.661568 
L 1084.255316 161.661568 
L 1064.255316 161.661568 
z
" style="fill:#800000;"/>
    </g>
    <g id="text_19">
     <!-- doubled-mshr -->
     <g transform="translate(1092.255316 168.661568)scale(0.1 -0.1)">
      <use transform="scale(0.996264)" xlink:href="#CMSS17-64"/>
      <use transform="translate(48.204943 0)scale(0.996264)" xlink:href="#CMSS17-6f"/>
      <use transform="translate(95.048567 0)scale(0.996264)" xlink:href="#CMSS17-75"/>
      <use transform="translate(143.25351 0)scale(0.996264)" xlink:href="#CMSS17-62"/>
      <use transform="translate(191.458453 0)scale(0.996264)" xlink:href="#CMSS17-6c"/>
      <use transform="translate(213.639176 0)scale(0.996264)" xlink:href="#CMSS17-65"/>
      <use transform="translate(255.277998 0)scale(0.996264)" xlink:href="#CMSS17-64"/>
      <use transform="translate(303.482941 0)scale(0.996264)" xlink:href="#CMSS17-2d"/>
      <use transform="translate(334.712054 0)scale(0.996264)" xlink:href="#CMSS17-6d"/>
      <use transform="translate(408.941308 0)scale(0.996264)" xlink:href="#CMSS17-73"/>
      <use transform="translate(444.85485 0)scale(0.996264)" xlink:href="#CMSS17-68"/>
      <use transform="translate(493.059793 0)scale(0.996264)" xlink:href="#CMSS17-72"/>
     </g>
    </g>
   </g>
  </g>
 </g>
 <defs>
  <clipPath id="pe855e7a14c">
   <rect height="443.52" width="1004.4" x="162" y="69.12"/>
  </clipPath>
 </defs>
</svg>
